<svg width="256" height="384" viewBox="0 0 256 384" fill="none" xmlns="http://www.w3.org/2000/svg">
<g clip-path="url(#clip0_1322_292)">
<path d="M256 0H0V384H256V0Z" fill="#E4C472"/>
<path d="M14.9609 300.367L14.9636 300.37H14.9664L14.9609 300.367Z" fill="#00B698"/>
<path d="M100.633 218.986H75.7438C74.7409 218.986 73.9204 218.164 73.9204 217.16V129.518C73.9204 128.514 74.7409 127.692 75.7438 127.692H100.61C101.613 127.692 102.433 128.514 102.433 129.518V137.278C102.433 138.282 101.613 139.104 100.61 139.104H87.1398C86.137 139.104 85.3165 139.926 85.3165 140.93V205.68C85.3165 206.684 86.137 207.506 87.1398 207.506H100.61C101.613 207.506 102.433 208.328 102.433 209.332V217.16C102.456 218.164 101.636 218.986 100.633 218.986Z" fill="black"/>
<path d="M155.926 127.692H180.679C181.681 127.692 182.502 128.514 182.502 129.518V217.16C182.502 218.164 181.681 218.986 180.679 218.986H155.926C154.924 218.986 154.103 218.164 154.103 217.16V209.4C154.103 208.396 154.924 207.574 155.926 207.574H169.351C170.354 207.574 171.174 206.753 171.174 205.748V140.998C171.174 139.994 170.354 139.173 169.351 139.173H155.926C154.924 139.173 154.103 138.351 154.103 137.347V129.518C154.126 128.514 154.924 127.692 155.926 127.692Z" fill="black"/>
<path d="M142.707 172.358L138.217 165.694C138.148 166.082 138.012 166.47 137.829 166.812L137.807 166.858L129.26 179.776L142.844 200.294C143.55 201.526 144.348 201.846 145.396 201.869H145.419H145.465H156.929H157.043C158.547 201.869 159.778 200.636 159.778 199.13V197.692L142.707 172.358Z" fill="black"/>
<path d="M159.801 147.549C159.801 146.043 158.57 144.81 157.066 144.81H145.442C143.938 144.81 142.707 146.088 142.707 147.549V170.327L159.801 195.661V147.549Z" fill="black"/>
<path d="M114.171 147.549C114.171 146.043 112.94 144.81 111.436 144.81H99.8122C98.3079 144.81 97.0771 146.043 97.0771 147.549V195.889L114.171 170.623V147.549Z" fill="black"/>
<path d="M136.713 163.411C136.599 163.206 136.439 163 136.28 162.818C135.755 162.27 135.026 161.928 134.183 161.928H123.037C121.943 161.928 121.054 162.521 120.393 163.503L114.445 172.267L97.0771 197.92V199.107C97.0771 199.495 97.1683 199.837 97.3279 200.134C97.7609 201.138 98.6954 201.846 100.017 201.846H111.391H111.413C111.413 201.846 111.413 201.846 111.436 201.846H111.687C112.781 201.846 113.693 201.275 114.331 200.271L128.553 178.726L136.804 166.219C137.305 165.42 137.26 164.324 136.713 163.411Z" fill="black"/>
<path d="M64 224H65.3416L67.1914 231.46L67.354 232.151H67.415L67.6182 231.46L69.8949 224H71.1348L73.3099 231.46L73.5131 232.151H73.5741L75.5662 224H76.9078L74.1636 234.143H72.9236L70.769 226.805L70.5454 226.012H70.4844L70.2405 226.805L68.0045 234.143H66.7645L64 224Z" fill="black"/>
<path d="M78.6354 233.859C78.0662 233.514 77.619 233.067 77.3141 232.477C76.9888 231.888 76.8466 231.237 76.8466 230.546C76.8466 229.834 77.0092 229.184 77.3141 228.595C77.6393 228.005 78.0662 227.538 78.6354 227.212C79.2045 226.867 79.8347 226.704 80.5461 226.704C81.2576 226.704 81.8877 226.867 82.4569 227.212C83.026 227.558 83.4732 228.005 83.7781 228.595C84.1034 229.184 84.2457 229.834 84.2457 230.546C84.2457 231.257 84.083 231.908 83.7781 232.477C83.4529 233.067 83.026 233.534 82.4569 233.859C81.8877 234.205 81.2576 234.367 80.5461 234.367C79.8347 234.367 79.2045 234.205 78.6354 233.859ZM81.7861 232.945C82.1723 232.721 82.4772 232.396 82.7008 231.989C82.9244 231.583 83.0463 231.095 83.0463 230.526C83.0463 229.977 82.9244 229.489 82.7008 229.062C82.4772 228.656 82.1723 228.33 81.7861 228.107C81.3998 227.883 80.9933 227.781 80.5461 227.781C80.0989 227.781 79.6924 227.883 79.3061 228.107C78.9199 228.33 78.615 228.656 78.3711 229.062C78.1475 229.469 78.0255 229.956 78.0255 230.526C78.0255 231.074 78.1475 231.562 78.3711 231.989C78.5947 232.396 78.9199 232.721 79.3061 232.945C79.6924 233.168 80.1192 233.27 80.5461 233.27C80.973 233.27 81.3998 233.168 81.7861 232.945Z" fill="black"/>
<path d="M85.5265 226.928H86.6648V227.985H86.7258C86.9291 227.619 87.2543 227.314 87.6608 227.07C88.0674 226.826 88.5146 226.704 88.9821 226.704C89.5106 226.704 89.9781 226.826 90.3644 227.09C90.7506 227.355 91.0352 227.68 91.2181 228.107C91.4824 227.68 91.8076 227.334 92.2345 227.09C92.6613 226.826 93.1492 226.704 93.698 226.704C94.5314 226.704 95.1616 226.948 95.5681 227.456C95.995 227.964 96.1983 228.656 96.1983 229.509V234.144H94.999V229.692C94.999 229.021 94.8567 228.534 94.5924 228.229C94.3282 227.924 93.9216 227.781 93.3728 227.781C93.0069 227.781 92.6817 227.883 92.3971 228.086C92.1125 228.29 91.8686 228.574 91.706 228.92C91.5433 229.265 91.462 229.652 91.462 230.058V234.144H90.2627V229.713C90.2627 229.042 90.1204 228.534 89.8562 228.249C89.5919 227.944 89.1854 227.802 88.6569 227.802C88.291 227.802 87.9658 227.903 87.6812 228.127C87.3966 228.33 87.1527 228.615 86.99 228.981C86.8274 229.326 86.7461 229.713 86.7461 230.119V234.144H85.5265V226.928Z" fill="black"/>
<path d="M99.2879 233.879C98.7391 233.553 98.3122 233.086 98.0073 232.517C97.7024 231.927 97.5398 231.277 97.5398 230.545C97.5398 229.854 97.6821 229.203 97.9667 228.614C98.2512 228.024 98.6578 227.557 99.1863 227.211C99.7148 226.866 100.325 226.683 101.036 226.683C101.748 226.683 102.357 226.845 102.886 227.15C103.414 227.476 103.801 227.902 104.085 228.451C104.37 229 104.512 229.651 104.512 230.362C104.512 230.504 104.492 230.626 104.471 230.728H98.7391C98.7594 231.277 98.9017 231.744 99.1456 232.11C99.3896 232.496 99.6741 232.781 100.04 232.964C100.406 233.147 100.792 233.249 101.178 233.249C102.113 233.249 102.825 232.822 103.313 231.948L104.329 232.435C104.024 233.025 103.597 233.492 103.069 233.818C102.54 234.163 101.89 234.326 101.138 234.326C100.447 234.367 99.8368 234.204 99.2879 233.879ZM103.211 229.773C103.191 229.468 103.109 229.163 102.947 228.858C102.805 228.553 102.561 228.309 102.235 228.085C101.91 227.882 101.504 227.781 101.016 227.781C100.447 227.781 99.9791 227.963 99.5725 228.329C99.1863 228.695 98.922 229.163 98.8001 229.773H103.211V229.773Z" fill="black"/>
<path d="M105.895 226.928H107.033V227.985H107.094C107.297 227.619 107.602 227.314 108.049 227.07C108.476 226.826 108.944 226.704 109.432 226.704C110.306 226.704 110.956 226.948 111.424 227.456C111.891 227.964 112.115 228.656 112.115 229.509V234.144H110.916V229.692C110.916 229.021 110.753 228.534 110.428 228.229C110.103 227.924 109.676 227.781 109.106 227.781C108.72 227.781 108.375 227.883 108.07 228.107C107.765 228.33 107.521 228.615 107.358 228.96C107.196 229.306 107.094 229.692 107.094 230.078V234.144H105.895V226.928V226.928Z" fill="black"/>
<path d="M118.883 225.158H116.038V224.02H122.929V225.158H120.083V234.143H118.883V225.158Z" fill="black"/>
<path d="M124.433 233.879C123.884 233.553 123.457 233.086 123.152 232.517C122.847 231.927 122.684 231.277 122.684 230.545C122.684 229.854 122.827 229.203 123.111 228.614C123.396 228.024 123.802 227.557 124.331 227.211C124.859 226.866 125.469 226.683 126.181 226.683C126.892 226.683 127.502 226.845 128.031 227.15C128.559 227.476 128.945 227.902 129.23 228.451C129.514 229 129.657 229.651 129.657 230.362C129.657 230.504 129.636 230.626 129.616 230.728H123.904C123.924 231.277 124.067 231.744 124.311 232.11C124.555 232.496 124.839 232.781 125.205 232.964C125.571 233.147 125.957 233.249 126.343 233.249C127.278 233.249 127.99 232.822 128.478 231.948L129.494 232.435C129.189 233.025 128.762 233.492 128.234 233.818C127.705 234.163 127.055 234.326 126.303 234.326C125.591 234.367 124.981 234.204 124.433 233.879ZM128.356 229.773C128.335 229.468 128.254 229.163 128.091 228.858C127.949 228.553 127.705 228.309 127.38 228.085C127.055 227.882 126.648 227.781 126.16 227.781C125.591 227.781 125.124 227.963 124.717 228.329C124.331 228.695 124.067 229.163 123.945 229.773H128.356V229.773Z" fill="black"/>
<path d="M132.503 233.88C131.954 233.554 131.507 233.087 131.202 232.497C130.897 231.908 130.734 231.257 130.734 230.546C130.734 229.814 130.897 229.164 131.202 228.574C131.507 227.985 131.954 227.538 132.503 227.192C133.052 226.867 133.682 226.704 134.393 226.704C135.186 226.704 135.837 226.887 136.365 227.253C136.894 227.619 137.28 228.107 137.503 228.696L136.406 229.143C136.223 228.696 135.959 228.371 135.613 228.127C135.267 227.903 134.841 227.781 134.332 227.781C133.906 227.781 133.519 227.903 133.133 228.127C132.767 228.351 132.462 228.676 132.239 229.103C132.015 229.509 131.913 229.997 131.913 230.526C131.913 231.054 132.015 231.542 132.239 231.949C132.462 232.355 132.747 232.68 133.133 232.924C133.499 233.148 133.906 233.27 134.332 233.27C134.841 233.27 135.288 233.148 135.654 232.924C136.02 232.68 136.304 232.355 136.467 231.928L137.544 232.375C137.3 232.965 136.914 233.453 136.365 233.819C135.816 234.185 135.166 234.367 134.393 234.367C133.682 234.367 133.052 234.205 132.503 233.88Z" fill="black"/>
<path d="M138.844 224H140.044V226.988L139.983 227.984H140.044C140.247 227.618 140.552 227.313 140.979 227.069C141.406 226.825 141.873 226.704 142.381 226.704C143.255 226.704 143.926 226.968 144.394 227.476C144.861 227.984 145.085 228.675 145.085 229.529V234.143H143.886V229.692C143.886 229.041 143.723 228.553 143.398 228.248C143.073 227.943 142.646 227.781 142.117 227.781C141.731 227.781 141.385 227.903 141.08 228.126C140.755 228.35 140.511 228.655 140.328 229C140.145 229.366 140.044 229.732 140.044 230.118V234.143H138.844V224Z" fill="black"/>
<path d="M146.833 226.928H147.972V227.985H148.033C148.236 227.619 148.561 227.314 148.968 227.07C149.374 226.826 149.821 226.704 150.289 226.704C150.818 226.704 151.285 226.826 151.671 227.09C152.057 227.355 152.342 227.68 152.525 228.107C152.789 227.68 153.114 227.334 153.541 227.09C153.968 226.826 154.456 226.704 155.005 226.704C155.838 226.704 156.468 226.948 156.875 227.456C157.302 227.964 157.505 228.656 157.505 229.509V234.144H156.306V229.692C156.306 229.021 156.164 228.534 155.899 228.229C155.635 227.924 155.229 227.781 154.68 227.781C154.314 227.781 153.989 227.883 153.704 228.086C153.419 228.29 153.175 228.574 153.013 228.92C152.85 229.265 152.769 229.652 152.769 230.058V234.144H151.57V229.713C151.57 229.042 151.427 228.534 151.163 228.249C150.899 227.944 150.492 227.802 149.964 227.802C149.598 227.802 149.273 227.903 148.988 228.127C148.703 228.33 148.46 228.615 148.297 228.981C148.134 229.326 148.053 229.713 148.053 230.119V234.144H146.854V226.928H146.833Z" fill="black"/>
<path d="M160.066 234.063C159.66 233.859 159.334 233.575 159.111 233.209C158.887 232.843 158.765 232.436 158.765 231.969C158.765 231.196 159.05 230.607 159.619 230.18C160.188 229.753 160.92 229.53 161.794 229.53C162.221 229.53 162.627 229.57 163.014 229.672C163.38 229.774 163.664 229.875 163.867 229.997V229.55C163.867 229.021 163.684 228.574 163.298 228.249C162.912 227.924 162.444 227.761 161.875 227.761C161.469 227.761 161.103 227.842 160.757 228.025C160.412 228.208 160.148 228.452 159.944 228.757L159.03 228.086C159.314 227.659 159.7 227.314 160.188 227.07C160.676 226.826 161.245 226.704 161.835 226.704C162.81 226.704 163.583 226.968 164.152 227.477C164.721 227.985 164.985 228.696 164.985 229.591V234.144H163.847V233.107H163.786C163.583 233.453 163.258 233.758 162.851 234.002C162.444 234.245 161.977 234.367 161.448 234.367C160.94 234.367 160.473 234.266 160.066 234.063ZM162.729 233.006C163.075 232.802 163.359 232.518 163.562 232.172C163.766 231.827 163.867 231.44 163.867 231.034C163.644 230.892 163.359 230.77 163.034 230.668C162.709 230.566 162.363 230.526 161.977 230.526C161.326 230.526 160.818 230.668 160.473 230.932C160.127 231.196 159.965 231.562 159.965 231.989C159.965 232.396 160.107 232.701 160.412 232.945C160.717 233.188 161.103 233.31 161.55 233.31C161.997 233.31 162.363 233.209 162.729 233.006Z" fill="black"/>
<path d="M166.693 224H167.892V230.383L171.287 226.927H172.811V226.988L169.986 229.854L172.893 234.103V234.164H171.47L169.152 230.688L167.913 231.928V234.143H166.713V224H166.693Z" fill="black"/>
<path d="M174.986 233.879C174.438 233.553 174.011 233.086 173.706 232.517C173.401 231.927 173.238 231.277 173.238 230.545C173.238 229.854 173.381 229.203 173.665 228.614C173.95 228.024 174.356 227.557 174.885 227.211C175.413 226.866 176.023 226.683 176.735 226.683C177.446 226.683 178.056 226.845 178.584 227.15C179.113 227.476 179.499 227.902 179.784 228.451C180.068 229 180.211 229.651 180.211 230.362C180.211 230.504 180.19 230.626 180.17 230.728H174.458C174.478 231.277 174.621 231.744 174.864 232.11C175.108 232.496 175.393 232.781 175.759 232.964C176.125 233.147 176.511 233.249 176.897 233.249C177.832 233.249 178.544 232.822 179.032 231.948L180.048 232.435C179.743 233.025 179.316 233.492 178.788 233.818C178.259 234.143 177.609 234.326 176.857 234.326C176.145 234.367 175.535 234.204 174.986 233.879ZM178.93 229.773C178.91 229.468 178.828 229.163 178.666 228.858C178.523 228.553 178.279 228.309 177.954 228.085C177.629 227.882 177.222 227.781 176.735 227.781C176.165 227.781 175.698 227.963 175.291 228.329C174.905 228.695 174.641 229.163 174.519 229.773H178.93V229.773Z" fill="black"/>
<path d="M181.613 226.927H182.751V228.085H182.812C182.955 227.679 183.219 227.354 183.626 227.089C184.032 226.825 184.459 226.683 184.906 226.683C185.231 226.683 185.516 226.744 185.76 226.845V228.126C185.455 227.984 185.109 227.902 184.744 227.902C184.398 227.902 184.073 228.004 183.788 228.207C183.504 228.411 183.26 228.675 183.097 229C182.914 229.346 182.833 229.691 182.833 230.078V234.143H181.633V226.927H181.613Z" fill="black"/>
<path d="M187.223 233.838C186.695 233.472 186.329 233.005 186.125 232.436L187.203 231.948C187.386 232.375 187.65 232.72 187.995 232.964C188.341 233.208 188.748 233.31 189.154 233.31C189.601 233.31 189.988 233.208 190.313 233.025C190.638 232.842 190.801 232.578 190.801 232.232C190.801 231.927 190.679 231.683 190.414 231.5C190.15 231.318 189.764 231.155 189.215 231.033L188.341 230.809C187.772 230.667 187.284 230.423 186.918 230.078C186.552 229.732 186.369 229.305 186.369 228.756C186.369 228.35 186.491 227.984 186.735 227.659C186.979 227.333 187.325 227.089 187.731 226.927C188.138 226.764 188.585 226.663 189.073 226.663C189.703 226.663 190.272 226.805 190.76 227.069C191.248 227.333 191.614 227.72 191.817 228.207L190.76 228.695C190.435 228.045 189.866 227.74 189.052 227.74C188.646 227.74 188.3 227.842 188.016 228.025C187.711 228.207 187.569 228.451 187.569 228.716C187.569 228.98 187.67 229.203 187.874 229.366C188.077 229.529 188.402 229.671 188.809 229.773L189.866 230.037C190.577 230.22 191.106 230.484 191.471 230.83C191.837 231.175 192 231.622 192 232.131C192 232.578 191.878 232.964 191.614 233.289C191.349 233.635 191.004 233.879 190.577 234.062C190.15 234.245 189.662 234.326 189.134 234.326C188.382 234.367 187.731 234.184 187.223 233.838Z" fill="black"/>
<path d="M119.514 250C119.154 250 118.804 249.93 118.463 249.79C118.126 249.65 117.827 249.444 117.565 249.173C117.303 248.899 117.115 248.568 117 248.181L117.815 247.875C117.93 248.274 118.141 248.602 118.448 248.858C118.759 249.114 119.123 249.242 119.539 249.242C119.954 249.242 120.306 249.138 120.594 248.931C120.882 248.721 121.026 248.434 121.026 248.072C121.026 247.758 120.904 247.501 120.658 247.3C120.413 247.096 120.012 246.907 119.455 246.733L119.003 246.582C118.493 246.415 118.077 246.194 117.756 245.92C117.435 245.646 117.275 245.265 117.275 244.777C117.275 244.461 117.368 244.167 117.555 243.896C117.741 243.621 118.002 243.404 118.336 243.242C118.673 243.081 119.049 243 119.465 243C119.881 243 120.242 243.072 120.55 243.215C120.861 243.358 121.108 243.533 121.291 243.74C121.475 243.944 121.604 244.147 121.679 244.348L120.884 244.663C120.809 244.435 120.652 244.228 120.413 244.042C120.177 243.853 119.864 243.758 119.475 243.758C119.108 243.758 118.794 243.856 118.532 244.051C118.27 244.243 118.139 244.485 118.139 244.777C118.139 245.039 118.249 245.254 118.468 245.422C118.691 245.586 119.026 245.74 119.475 245.883L119.951 246.029C120.56 246.237 121.035 246.495 121.375 246.806C121.719 247.114 121.891 247.533 121.891 248.063C121.891 248.492 121.771 248.855 121.532 249.15C121.293 249.443 120.992 249.657 120.629 249.794C120.269 249.931 119.897 250 119.514 250ZM124.695 250C124.077 250 123.605 249.832 123.281 249.497C122.957 249.159 122.795 248.687 122.795 248.081V245.079H123.65V247.958C123.65 248.414 123.759 248.75 123.979 248.963C124.201 249.173 124.501 249.278 124.877 249.278C125.165 249.278 125.421 249.206 125.643 249.063C125.869 248.92 126.044 248.733 126.169 248.501C126.293 248.27 126.355 248.026 126.355 247.77V245.079H127.209V249.849H126.394V249.155H126.355C126.214 249.392 125.989 249.593 125.678 249.758C125.37 249.919 125.042 250 124.695 250ZM130.748 250C130.254 250 129.809 249.889 129.413 249.666C129.017 249.444 128.707 249.141 128.485 248.757C128.265 248.373 128.156 247.942 128.156 247.464C128.156 246.983 128.265 246.549 128.485 246.162C128.707 245.775 129.017 245.473 129.413 245.257C129.809 245.038 130.254 244.928 130.748 244.928C131.305 244.928 131.773 245.049 132.153 245.289C132.532 245.527 132.802 245.847 132.963 246.249L132.187 246.546C132.059 246.253 131.869 246.031 131.617 245.879C131.365 245.723 131.062 245.646 130.709 245.646C130.408 245.646 130.126 245.723 129.864 245.879C129.603 246.031 129.393 246.244 129.236 246.518C129.079 246.792 129 247.108 129 247.464C129 247.817 129.079 248.133 129.236 248.41C129.393 248.684 129.603 248.897 129.864 249.05C130.126 249.202 130.408 249.278 130.709 249.278C131.072 249.278 131.383 249.2 131.642 249.045C131.904 248.89 132.099 248.667 132.226 248.378L132.992 248.68C132.819 249.072 132.539 249.391 132.153 249.634C131.766 249.878 131.298 250 130.748 250ZM133.866 245.079H134.681V245.842H134.72C134.822 245.58 135.017 245.364 135.305 245.193C135.593 245.023 135.894 244.937 136.208 244.937C136.444 244.937 136.645 244.968 136.812 245.029V245.892C136.599 245.792 136.359 245.742 136.09 245.742C135.842 245.742 135.612 245.807 135.403 245.938C135.197 246.069 135.031 246.246 134.907 246.468C134.783 246.687 134.72 246.925 134.72 247.181V249.849H133.866V245.079ZM139.619 250C139.128 250 138.687 249.89 138.298 249.671C137.911 249.452 137.609 249.152 137.389 248.771C137.173 248.387 137.065 247.955 137.065 247.473C137.065 247.016 137.167 246.593 137.37 246.203C137.576 245.813 137.867 245.504 138.244 245.275C138.623 245.044 139.059 244.928 139.55 244.928C140.051 244.928 140.484 245.033 140.851 245.243C141.221 245.451 141.504 245.738 141.7 246.107C141.9 246.476 142 246.896 142 247.368C142 247.444 141.993 247.527 141.98 247.615H137.92C137.939 247.974 138.033 248.279 138.2 248.529C138.366 248.779 138.579 248.966 138.838 249.091C139.096 249.216 139.367 249.278 139.648 249.278C140.319 249.278 140.825 248.992 141.165 248.419L141.892 248.743C141.676 249.124 141.376 249.429 140.993 249.657C140.614 249.886 140.155 250 139.619 250ZM141.097 246.957C141.083 246.759 141.023 246.561 140.915 246.363C140.807 246.162 140.638 245.993 140.409 245.856C140.183 245.716 139.897 245.646 139.55 245.646C139.147 245.646 138.805 245.766 138.524 246.007C138.242 246.247 138.057 246.564 137.969 246.957H141.097Z" fill="black"/>
</g>
<defs>
<clipPath id="clip0_1322_292">
<rect width="256" height="384" fill="white"/>
</clipPath>
</defs>
</svg>
