<svg width="36" height="26" viewBox="0 0 36 26" fill="none" xmlns="http://www.w3.org/2000/svg">
<path d="M36 22C36 23.0609 35.5786 24.0783 34.8284 24.8284C34.0783 25.5786 33.0609 26 32 26H4C2.93913 26 1.92172 25.5786 1.17157 24.8284C0.421427 24.0783 0 23.0609 0 22V4C0 2.93913 0.421427 1.92172 1.17157 1.17157C1.92172 0.421427 2.93913 0 4 0H32C33.0609 0 34.0783 0.421427 34.8284 1.17157C35.5786 1.92172 36 2.93913 36 4V22Z" fill="#007934"/>
<path d="M0 8H36V18H0V8Z" fill="#FFE000"/>
<path d="M32 0H4C2.93913 0 1.92172 0.421427 1.17157 1.17157C0.421427 1.92172 0 2.93913 0 4L0 8H36V4C36 2.93913 35.5786 1.92172 34.8284 1.17157C34.0783 0.421427 33.0609 0 32 0Z" fill="#D52B1E"/>
<path d="M12.894 11.335C12.935 11.397 13.275 11.885 13.275 11.885H13.764L13.564 11.61L12.894 11.335ZM13.627 10.847C13.668 10.908 14.008 11.397 14.008 11.397H14.497L14.297 11.122L13.627 10.847ZM14.309 10.233C14.328 10.304 14.494 10.876 14.494 10.876L14.956 11.033L14.856 10.709L14.309 10.233Z" fill="white"/>
<path d="M13.953 16.498C13.9435 16.5029 13.9331 16.5059 13.9225 16.5068C13.9118 16.5077 13.9011 16.5064 13.8909 16.503C13.8807 16.4997 13.8713 16.4943 13.8633 16.4873C13.8552 16.4802 13.8487 16.4716 13.844 16.462C13.839 16.4526 13.836 16.4422 13.835 16.4316C13.8341 16.421 13.8353 16.4103 13.8385 16.4001C13.8418 16.39 13.8471 16.3806 13.854 16.3725C13.861 16.3644 13.8695 16.3578 13.879 16.353L16.346 15.093C16.3554 15.088 16.3656 15.0849 16.3762 15.0839C16.3868 15.0828 16.3975 15.084 16.4076 15.0871C16.4178 15.0903 16.4272 15.0954 16.4353 15.1023C16.4435 15.1091 16.4502 15.1175 16.455 15.127C16.4648 15.1462 16.4667 15.1686 16.4601 15.1892C16.4536 15.2098 16.4392 15.227 16.42 15.237L13.953 16.498ZM14.447 16.954C14.4287 16.9655 14.4067 16.9694 14.3856 16.9649C14.3646 16.9604 14.346 16.9479 14.334 16.93C14.3222 16.9119 14.318 16.8899 14.3223 16.8688C14.3266 16.8476 14.3391 16.829 14.357 16.817L16.667 15.29C16.6848 15.2781 16.7066 15.2737 16.7276 15.2778C16.7486 15.2819 16.7671 15.2942 16.779 15.312C16.7909 15.3298 16.7953 15.3515 16.7912 15.3726C16.7871 15.3936 16.7748 15.4121 16.757 15.424L14.447 16.954Z" fill="#A05A2D"/>
<path d="M14.9469 17.3769C14.9325 17.3929 14.9125 17.4027 14.8911 17.4042C14.8696 17.4057 14.8484 17.3988 14.8319 17.3849C14.8238 17.3778 14.8172 17.3691 14.8125 17.3594C14.8078 17.3497 14.805 17.3392 14.8043 17.3284C14.8037 17.3176 14.8052 17.3068 14.8087 17.2966C14.8123 17.2864 14.8178 17.277 14.8249 17.2689L16.6559 15.1909C16.6703 15.1749 16.6905 15.1652 16.712 15.1638C16.7335 15.1625 16.7547 15.1698 16.7709 15.1839C16.779 15.1909 16.7855 15.1994 16.7903 15.209C16.795 15.2185 16.7977 15.2289 16.7984 15.2395C16.799 15.2501 16.7976 15.2607 16.794 15.2708C16.7905 15.2808 16.7851 15.29 16.7779 15.2979L14.9469 17.3769Z" fill="#A05A2D"/>
<path d="M17.3481 15.715L16.7781 16.896L16.6761 16.792L16.4541 17.099L15.8511 16.771L16.6001 15.307L17.3481 15.715Z" fill="#A05A2D"/>
<path d="M17.593 17.525L18 15.592L17.958 13.901L15.027 11.101L14.823 11.743L14.416 11.417L14.294 12.089C14.294 12.089 13.784 11.723 13.764 11.784C13.744 11.845 13.621 13.332 13.58 14.167C13.54 15.001 13.506 16.243 14.415 16.407C16.003 16.692 17.184 15.511 17.184 15.511C17.184 15.511 17.571 15.878 17.591 15.939C17.611 16 17.448 16.712 17.387 16.998C17.328 17.281 17.593 17.525 17.593 17.525Z" fill="#D52B1E"/>
<path d="M15.5551 11.644L15.3931 12.109L15.1281 11.966C15.1281 11.966 14.4531 15.367 15.5541 15.632C16.6551 15.897 16.7781 15.448 16.7781 15.448L16.2481 14.736L15.8511 14.919C15.8511 14.919 15.6581 14.393 15.6581 13.679C15.6581 13.042 15.7601 12.414 15.7601 12.414L15.9621 12.556L16.0041 12.088L15.5551 11.644Z" fill="#FFE000"/>
<path d="M16.676 12.659L16.004 12.088L15.962 12.556L15.699 12.373C15.699 12.373 15.553 12.862 15.555 13.493C15.557 14.124 15.638 14.736 15.638 14.736C15.638 14.736 16.106 14.898 16.35 14.736C16.595 14.573 16.676 12.659 16.676 12.659Z" fill="#007934"/>
<path d="M16.4541 14.573C15.9251 14.8 14.8431 15.208 15.1281 15.715C15.4141 16.223 16.2481 16.02 16.7781 15.448C17.3081 14.878 16.4541 14.573 16.4541 14.573Z" fill="#E8A30F"/>
<path d="M23.105 11.335C23.065 11.397 22.724 11.885 22.724 11.885H22.235L22.434 11.61L23.105 11.335ZM22.372 10.847C22.332 10.908 21.992 11.397 21.992 11.397H21.503L21.702 11.122L22.372 10.847ZM21.691 10.233L21.506 10.876L21.043 11.033L21.144 10.709L21.691 10.233Z" fill="white"/>
<path d="M22.047 16.4979C22.0565 16.5029 22.0669 16.5059 22.0775 16.5068C22.0882 16.5076 22.0989 16.5064 22.1091 16.503C22.1193 16.4996 22.1287 16.4943 22.1367 16.4872C22.1448 16.4802 22.1513 16.4716 22.156 16.4619C22.161 16.4525 22.164 16.4422 22.165 16.4316C22.1659 16.4209 22.1647 16.4102 22.1615 16.4001C22.1582 16.3899 22.1529 16.3805 22.146 16.3724C22.139 16.3643 22.1305 16.3577 22.121 16.3529L19.655 15.0929C19.6359 15.083 19.6136 15.081 19.593 15.0874C19.5724 15.0938 19.5552 15.108 19.545 15.1269C19.5399 15.1365 19.5368 15.147 19.5358 15.1577C19.5349 15.1685 19.5361 15.1794 19.5395 15.1897C19.5428 15.1999 19.5482 15.2094 19.5554 15.2176C19.5625 15.2257 19.5712 15.2323 19.581 15.2369L22.047 16.4979ZM21.553 16.9539C21.5713 16.9654 21.5933 16.9693 21.6144 16.9648C21.6354 16.9604 21.654 16.9478 21.666 16.9299C21.672 16.921 21.6761 16.911 21.6782 16.9005C21.6803 16.89 21.6803 16.8792 21.6781 16.8686C21.676 16.8581 21.6718 16.8481 21.6657 16.8393C21.6597 16.8304 21.652 16.8228 21.643 16.8169L19.334 15.29C19.3252 15.2839 19.3154 15.2797 19.3049 15.2776C19.2945 15.2755 19.2838 15.2754 19.2734 15.2775C19.263 15.2795 19.253 15.2836 19.2442 15.2895C19.2354 15.2955 19.2278 15.3031 19.222 15.3119C19.216 15.3207 19.2118 15.3306 19.2097 15.341C19.2075 15.3514 19.2075 15.3621 19.2095 15.3726C19.2116 15.383 19.2157 15.3929 19.2216 15.4017C19.2275 15.4105 19.2351 15.4181 19.244 15.4239L21.553 16.9539Z" fill="#A05A2D"/>
<path d="M21.054 17.3769C21.0683 17.3928 21.0881 17.4026 21.1094 17.4041C21.1307 17.4056 21.1517 17.3987 21.168 17.3849C21.1843 17.3705 21.1942 17.3503 21.1957 17.3286C21.1972 17.3069 21.1902 17.2855 21.176 17.2689L19.345 15.1909C19.317 15.1569 19.265 15.1549 19.231 15.1839C19.2229 15.1908 19.2163 15.1993 19.2115 15.2088C19.2067 15.2183 19.2038 15.2286 19.2031 15.2393C19.2023 15.2499 19.2037 15.2605 19.2071 15.2706C19.2106 15.2807 19.216 15.29 19.223 15.2979L21.054 17.3769Z" fill="#A05A2D"/>
<path d="M18.6521 15.715L19.2221 16.896L19.3241 16.792L19.5461 17.099L20.1491 16.771L19.4001 15.307L18.6521 15.715Z" fill="#A05A2D"/>
<path d="M18.407 17.525L18 15.592L18.042 13.901L20.973 11.101L21.178 11.743L21.585 11.417L21.707 12.089C21.707 12.089 22.215 11.723 22.235 11.784C22.256 11.845 22.379 13.332 22.419 14.167C22.46 15.001 22.494 16.243 21.585 16.407C19.996 16.692 18.815 15.511 18.815 15.511C18.815 15.511 18.428 15.878 18.408 15.939C18.388 16 18.551 16.712 18.612 16.998C18.672 17.281 18.407 17.525 18.407 17.525Z" fill="#D52B1E"/>
<path d="M20.4449 11.644L20.6059 12.109L20.8709 11.966C20.8709 11.966 21.5469 15.367 20.4449 15.632C19.3439 15.897 19.2209 15.448 19.2209 15.448L19.7499 14.736L20.1479 14.919C20.1479 14.919 20.3399 14.393 20.3399 13.679C20.3399 13.042 20.2379 12.414 20.2379 12.414L20.0359 12.556L19.9939 12.088L20.4449 11.644Z" fill="#FFE000"/>
<path d="M19.324 12.659L19.996 12.088L20.038 12.556L20.301 12.373C20.301 12.373 20.447 12.862 20.445 13.493C20.443 14.124 20.362 14.736 20.362 14.736C20.362 14.736 19.893 14.898 19.649 14.736C19.404 14.573 19.324 12.659 19.324 12.659Z" fill="#007934"/>
<path d="M19.546 14.573C20.075 14.8 21.156 15.208 20.871 15.715C20.586 16.223 19.751 16.02 19.222 15.448C18.692 14.878 19.546 14.573 19.546 14.573Z" fill="#E8A30F"/>
<path d="M16.3311 10.8249C16.5021 11.0269 16.4941 11.3139 16.3131 11.4669C16.1331 11.6199 15.8491 11.5799 15.6781 11.3779C15.5081 11.1759 15.5151 10.8889 15.6951 10.7359C15.8751 10.5829 16.1601 10.6229 16.3311 10.8249Z" fill="#D52B1E"/>
<path d="M19.75 10.8249C19.58 11.0269 19.588 11.3139 19.769 11.4669C19.95 11.6199 20.233 11.5799 20.405 11.3779C20.576 11.1759 20.568 10.8889 20.387 10.7359C20.206 10.5829 19.922 10.6229 19.75 10.8249Z" fill="#E7E7E7"/>
<path d="M19.0999 8.48397C18.9569 8.58597 19.3649 9.23697 19.2839 9.94997C19.2009 10.663 17.9999 11.233 17.9999 11.233C17.9999 11.233 16.7979 10.663 16.7169 9.94997C16.6349 9.23797 17.0429 8.58597 16.8999 8.48397C16.7569 8.38197 16.0039 9.03397 15.9639 9.72597C15.9229 10.418 16.6239 11.461 17.0839 11.661C17.5439 11.861 18.0009 11.966 18.0009 11.966C18.0009 11.966 18.4569 11.86 18.9179 11.661C19.3789 11.461 20.0799 10.418 20.0379 9.72597C19.9959 9.03397 19.2419 8.38197 19.0999 8.48397Z" fill="#007934"/>
<path d="M17.9999 11.213C17.9999 11.213 18.1219 10.785 18.9169 10.541C19.7109 10.296 20.4639 10.113 20.7499 10.093C21.0359 10.072 19.6199 9.52298 19.2839 9.48198C18.9479 9.44198 18.5309 9.52298 18.4689 9.76798C18.4079 10.012 18.3059 9.93098 18.0009 9.97198C17.6949 10.012 17.4919 9.72698 17.3489 9.52398C17.2069 9.31998 16.6659 9.42198 16.4019 9.44298C16.1369 9.46298 15.1289 10.094 15.1289 10.094C15.1289 10.094 16.8809 10.379 17.2469 10.562C17.6129 10.746 17.2669 11.397 17.1659 11.581C17.0629 11.763 17.7709 11.524 17.9999 11.213Z" fill="white"/>
<path d="M17.9999 11.213C17.9999 11.213 18.1219 10.785 18.9169 10.541C19.7109 10.296 20.4639 10.113 20.7499 10.093C21.0359 10.072 19.7119 9.66497 19.3749 9.62397C19.0389 9.58397 18.7749 9.58397 18.7139 9.82797C18.6529 10.072 18.3069 9.92997 18.0009 9.97097C17.6949 10.011 17.3489 9.90997 17.2069 9.70597C17.0639 9.50197 16.8199 9.58397 16.5549 9.60397C16.2909 9.62397 15.1299 10.093 15.1299 10.093C15.1299 10.093 16.8819 10.378 17.2479 10.561C17.6139 10.745 17.2679 11.396 17.1669 11.58C17.0629 11.763 17.7709 11.524 17.9999 11.213Z" fill="black"/>
<path d="M15.821 13.656C15.821 12.34 16.797 11.274 18 11.274C19.204 11.274 20.179 12.341 20.179 13.656C20.179 14.972 19.204 16.039 18 16.039C16.797 16.039 15.821 14.973 15.821 13.656Z" fill="#00A6DE"/>
<path d="M16.4009 13.656C16.4009 12.622 17.1169 11.783 17.9999 11.783C18.8829 11.783 19.5989 12.622 19.5989 13.656C19.5989 14.692 18.8829 15.53 17.9999 15.53C17.1169 15.53 16.4009 14.692 16.4009 13.656Z" fill="#E8A30F"/>
<path d="M17.3081 12.842C17.3081 12.6585 17.381 12.4825 17.5108 12.3527C17.6406 12.2229 17.8166 12.15 18.0001 12.15C18.1836 12.15 18.3596 12.2229 18.4894 12.3527C18.6192 12.4825 18.6921 12.6585 18.6921 12.842C18.6921 13.0256 18.6192 13.2016 18.4894 13.3313C18.3596 13.4611 18.1836 13.534 18.0001 13.534C17.8166 13.534 17.6406 13.4611 17.5108 13.3313C17.381 13.2016 17.3081 13.0256 17.3081 12.842Z" fill="#D52B1E"/>
<path d="M18 15.53C18.849 15.53 19.544 14.755 19.596 13.775C19.075 13.582 18.214 12.842 18 12.842C17.776 12.842 17.491 13.087 17.125 13.412C16.937 13.58 16.645 13.715 16.407 13.807C16.472 14.771 17.16 15.53 18 15.53Z" fill="#007934"/>
<path d="M18.2041 10.133C18.2041 10.235 17.9941 10.317 17.7361 10.317C17.4771 10.317 17.2671 10.235 17.2671 10.133C17.2671 10.032 17.4771 9.94995 17.7361 9.94995C17.9941 9.94995 18.2041 10.033 18.2041 10.133Z" fill="#E8A30F"/>
<path d="M17.1851 14.573H17.6741L17.8161 14.166L18.0001 14.389L17.7961 14.98H17.3481L17.1851 14.573Z" fill="white"/>
<path d="M18.427 14.919C18.427 15.11 18.332 15.266 18.214 15.266C18.096 15.266 18 15.111 18 14.919C18 14.728 18.096 14.573 18.214 14.573C18.332 14.573 18.427 14.728 18.427 14.919ZM18.733 15.266C18.7331 15.2714 18.7322 15.2768 18.7302 15.2819C18.7281 15.2869 18.7251 15.2915 18.7213 15.2953C18.7175 15.2991 18.7129 15.3022 18.7079 15.3042C18.7028 15.3062 18.6974 15.3072 18.692 15.307C18.6866 15.3072 18.6812 15.3062 18.6761 15.3042C18.6711 15.3022 18.6665 15.2991 18.6627 15.2953C18.6589 15.2915 18.6559 15.2869 18.6538 15.2819C18.6518 15.2768 18.6509 15.2714 18.651 15.266V14.207C18.651 14.185 18.669 14.166 18.692 14.166C18.714 14.166 18.733 14.185 18.733 14.207V15.266Z" fill="#B37D0A"/>
<path d="M19.0379 14.104C19.0379 14.284 18.8789 14.43 18.6819 14.43C18.4849 14.43 18.3259 14.284 18.3259 14.104C18.3259 13.924 18.4859 13.778 18.6819 13.778C18.8789 13.779 19.0379 13.924 19.0379 14.104Z" fill="#32B266"/>
</svg>
