<?xml version="1.0" encoding="UTF-8" standalone="no"?>
<svg
   width="80"
   height="80"
   viewBox="-3 -15 80 90"
   fill="none"
   version="1.1"
   id="svg22"
   xmlns="http://www.w3.org/2000/svg"
   xmlns:svg="http://www.w3.org/2000/svg">
  <defs
     id="defs22" />
  <mask
     id="mask0_182_1381"
     maskUnits="userSpaceOnUse"
     x="0"
     y="0"
     width="348"
     height="61">
    <path
       d="M 0,0 H 347.434 V 61 H 0 Z"
       fill="#ffffff"
       id="path1" />
  </mask>
  <mask
     id="mask1_182_1381"
     maskUnits="userSpaceOnUse"
     x="0"
     y="0"
     width="348"
     height="61">
    <path
       d="M 0,0 H 347.434 V 61 H 0 Z"
       fill="#ffffff"
       id="path3" />
  </mask>
  <mask
     id="mask2_182_1381"
     maskUnits="userSpaceOnUse"
     x="0"
     y="0"
     width="348"
     height="61">
    <path
       d="M 0,0 H 347.434 V 61 H 0 Z"
       fill="#ffffff"
       id="path5" />
  </mask>
  <mask
     id="mask3_182_1381"
     maskUnits="userSpaceOnUse"
     x="0"
     y="0"
     width="348"
     height="61">
    <path
       d="M 0,0 H 347.434 V 61 H 0 Z"
       fill="#ffffff"
       id="path7" />
  </mask>
  <mask
     id="mask4_182_1381"
     maskUnits="userSpaceOnUse"
     x="0"
     y="0"
     width="348"
     height="61">
    <path
       d="M 0,0 H 347.434 V 61 H 0 Z"
       fill="#ffffff"
       id="path9" />
  </mask>
  <mask
     id="mask5_182_1381"
     maskUnits="userSpaceOnUse"
     x="0"
     y="0"
     width="348"
     height="61">
    <path
       d="M 0,0 H 347.434 V 61 H 0 Z"
       fill="#ffffff"
       id="path11" />
  </mask>
  <mask
     id="mask6_182_1381"
     maskUnits="userSpaceOnUse"
     x="0"
     y="0"
     width="348"
     height="61">
    <path
       d="M 0,0 H 347.434 V 61 H 0 Z"
       fill="#ffffff"
       id="path13" />
  </mask>
  <mask
     id="mask7_182_1381"
     maskUnits="userSpaceOnUse"
     x="0"
     y="0"
     width="348"
     height="61">
    <path
       d="M 0,0 H 347.434 V 61 H 0 Z"
       fill="#ffffff"
       id="path15" />
  </mask>
  <mask
     id="mask8_182_1381"
     maskUnits="userSpaceOnUse"
     x="0"
     y="0"
     width="348"
     height="61">
    <path
       d="M 0,0 H 347.434 V 61 H 0 Z"
       fill="#ffffff"
       id="path17" />
  </mask>
  <mask
     id="mask9_182_1381"
     maskUnits="userSpaceOnUse"
     x="0"
     y="0"
     width="348"
     height="61">
    <path
       d="M 0,0 H 347.434 V 61 H 0 Z"
       fill="#ffffff"
       id="path19" />
  </mask>
  <mask
     id="mask10_182_1381"
     maskUnits="userSpaceOnUse"
     x="0"
     y="0"
     width="348"
     height="61">
    <path
       d="M 0,0 H 347.434 V 61 H 0 Z"
       fill="#ffffff"
       id="path21" />
  </mask>
  <g
     id="g23"
     transform="translate(0.6283,-0.5001)">
    <g
       mask="url(#mask7_182_1381)"
       id="g16"
       transform="translate(-149.3558,-1e-4)">
    </g>
    <g
       mask="url(#mask8_182_1381)"
       id="g18"
       transform="translate(-149.3558,-1e-4)">
      <path
         d="M 173.684,45.7073 H 158.392 V 15.2927 h 15.292 z"
         fill="#000000"
         id="path18" />
    </g>
    <g
       mask="url(#mask9_182_1381)"
       id="g20"
       transform="translate(-149.3558,-1e-4)">
      <path
         d="m 217.737,30.5 c 0,8.6651 -7.024,15.6897 -15.69,15.6897 -8.665,0 -15.689,-7.0246 -15.689,-15.6897 0,-8.6651 7.024,-15.6897 15.689,-15.6897 8.666,0 15.69,7.0246 15.69,15.6897 z"
         fill="#000000"
         id="path20" />
    </g>
    <g
       mask="url(#mask10_182_1381)"
       id="g22"
       transform="translate(-149.3558,-1e-4)">
      <path
         d="m 178.698,48.9468 h -2.948 l 8.389,-36.8932 h 2.948 z"
         fill="#000000"
         id="path22" />
    </g>
  </g>
</svg>
