<svg width="130" height="118" viewBox="0 0 130 118" fill="none" xmlns="http://www.w3.org/2000/svg">
<path d="M130 0H0V118H130V0Z" fill="#2480EF"/>
<path d="M79.0717 85.4689C79.1627 85.6322 79.2692 85.7861 79.3922 85.9245C79.2834 85.792 79.1758 85.6393 79.0717 85.4689ZM95.2522 84.8441C95.2333 84.921 95.2144 84.9944 95.1931 85.0642C95.2321 84.9542 95.2629 84.8405 95.2877 84.7234C95.2771 84.7636 95.2652 84.8039 95.2522 84.8441Z" fill="#757575"/>
<path d="M48.44 86.8428H48.5228C48.5453 86.844 48.5678 86.844 48.5914 86.8428H48.4412H48.44Z" fill="#757575"/>
<g opacity="0.3">
<path d="M39.7358 94.2086C39.7358 93.2323 38.8627 92.5506 37.9448 92.5506L25.0445 92.4323C24.7192 92.4287 24.401 92.34 24.1218 92.1743L24.0923 92.1565C24.0213 92.1246 23.9562 92.0808 23.8983 92.0299L23.8166 91.9565C24.0071 92.1116 24.2307 92.2193 24.4708 92.269C24.4933 92.2749 24.6388 92.2985 24.6624 92.3021C24.737 92.3116 24.8091 92.3151 24.8813 92.3163H37.9448C38.3718 92.3163 38.7409 92.4488 39.0378 92.6772C39.2507 92.8405 39.4495 93.0678 39.569 93.3376C39.6825 93.5932 39.7405 93.8015 39.737 94.2097L39.7358 94.2086Z" fill="white"/>
<path d="M13.7981 14.8838H37.9755C38.8048 14.8838 39.7334 15.5938 39.7334 16.6222C39.7334 15.7299 38.7007 15.1075 37.9779 15.1075L13.8028 15.1051C13.7531 15.1051 13.7413 15.1146 13.6632 15.124L13.3675 14.9418C13.4562 14.9205 13.6206 14.885 13.7969 14.885L13.7981 14.8838Z" fill="white"/>
</g>
<g opacity="0.3">
<path d="M115.968 103.431C115.909 103.439 115.745 103.448 115.684 103.448L92.2451 103.442H92.0476C91.7258 103.446 91.4774 103.451 91.2621 103.401C91.0752 103.358 90.8256 103.259 90.6138 103.092C90.5984 103.079 90.5452 103.033 90.4967 102.989C90.4518 102.949 90.4127 102.914 90.4127 102.914C90.4127 102.914 90.8729 103.138 91.0764 103.173C91.5058 103.247 91.74 103.222 92.0464 103.22H92.2451L115.741 103.244C116.09 103.244 116.704 103.092 116.993 102.896L116.877 103.002C116.695 103.173 116.446 103.308 116.182 103.383C116.182 103.383 116.027 103.42 115.968 103.428V103.431Z" fill="white"/>
</g>
<path d="M95.3409 34.1519V80.7921L78.7428 56.1998V34.1519C78.7345 32.7412 79.9328 31.4951 81.3985 31.4951H92.6852C94.1532 31.4951 95.3409 32.6856 95.3409 34.1519Z" fill="white"/>
<path d="M95.341 82.7139V84.1872C95.341 84.3694 95.3232 84.5458 95.2889 84.7174C95.2877 84.7185 95.2877 84.7209 95.2877 84.7221C95.2629 84.8392 95.2321 84.9529 95.1931 85.0629C95.1895 85.0747 95.186 85.0878 95.1813 85.0996C94.8086 86.1161 93.8327 86.8428 92.6864 86.8428H81.3997C80.6367 86.8428 79.9494 86.5209 79.4644 86.0049C79.4396 85.9789 79.4171 85.9505 79.3922 85.9221C79.2692 85.7836 79.1628 85.6298 79.0717 85.4665C79.0681 85.4617 79.0646 85.4558 79.0634 85.4511C78.8587 85.0747 78.7428 84.644 78.7428 84.186V58.0742L95.2889 82.5896C95.3102 82.6251 95.3279 82.6665 95.341 82.7127V82.7139Z" fill="white"/>
<path d="M51.1786 34.1519V56.5773L34.5804 81.0158V34.1519C34.5804 32.6856 35.7705 31.4951 37.2361 31.4951H48.5228C49.9909 31.4951 51.1786 32.6856 51.1786 34.1519Z" fill="white"/>
<path d="M51.1786 58.4448V84.1874C51.1786 85.6311 50.0275 86.8075 48.5914 86.843C48.5689 86.8441 48.5465 86.8441 48.5228 86.8441H48.44C48.44 86.8441 48.4388 86.843 48.4364 86.843L37.4574 86.6228C35.9893 86.6228 34.5792 85.6548 34.5792 84.1886V83.3519C34.6265 83.0785 34.7046 82.804 34.8194 82.5306L51.1786 58.446V58.4448Z" fill="white"/>
<path d="M73.3473 51.6189C73.3438 51.6367 73.3402 51.6556 73.3355 51.6734V51.6805C73.2905 51.8769 73.2266 52.0615 73.1426 52.2296C73.1285 52.2627 73.1107 52.2946 73.0953 52.3254C73.0918 52.3337 73.0882 52.3443 73.0835 52.3514C73.0823 52.3538 73.0823 52.355 73.0799 52.3562C73.0693 52.3775 73.061 52.3976 73.048 52.4189L71.9845 54.0271C70.19 56.7573 67.7211 60.4755 65.1174 64.4151L57.1584 52.4189L70.4774 48.103C71.5255 48.103 72.3737 48.6486 73.0019 49.5693L73.171 49.819V49.8213C73.4088 50.3692 73.4822 50.9953 73.3461 51.6166L73.3473 51.6189Z" fill="white"/>
<path d="M95.2889 84.7175C95.2889 84.7175 95.2877 84.721 95.2877 84.7222C95.2629 84.8394 95.2321 84.953 95.1931 85.063C95.1895 85.0749 95.186 85.0879 95.1813 85.0997C95.1221 85.2938 95.0547 85.4571 94.9837 85.5684C94.5886 86.1814 94.0042 86.8547 92.6757 86.8547H81.5642C80.7491 86.8547 80.1209 86.7305 79.5366 86.0831C79.5117 86.0583 79.4892 86.0323 79.4644 86.0038C79.4396 85.9778 79.4171 85.9494 79.3922 85.921C79.2692 85.7826 79.1628 85.6287 79.0717 85.4654C79.0681 85.4607 79.0646 85.4548 79.0634 85.45C79.035 85.4062 79.009 85.3624 78.9829 85.3151L65.7468 65.3629C65.8296 65.2399 65.91 65.118 65.9904 64.9949C67.0267 63.4304 68.0393 61.8991 68.9975 60.4518C70.4266 58.2897 71.7775 56.2507 72.8611 54.6046L73.9246 52.9976L73.9494 52.9585L73.9707 52.9183C73.9826 52.8958 73.9956 52.8733 74.0062 52.852C74.024 52.8224 74.0358 52.794 74.0464 52.7715C74.0618 52.7396 74.0784 52.71 74.0914 52.6804C74.2073 52.4425 74.296 52.1846 74.3575 51.9171L74.3599 51.9088L74.3635 51.8946C74.367 51.8733 74.3717 51.8508 74.3753 51.8295C74.3871 51.7704 74.4001 51.7088 74.4084 51.6497L78.744 58.0732L95.2901 82.5886C95.3114 82.6241 95.3291 82.6655 95.3421 82.7116C95.4001 82.8749 95.4261 83.0986 95.4297 83.3507C95.4557 83.7554 95.4179 84.2394 95.2901 84.7163L95.2889 84.7175Z" fill="white"/>
<g opacity="0.3">
<path d="M39.1455 86.8299L37.5106 86.8441C36.3477 86.8571 35.5232 86.3979 34.9921 85.5968C34.4254 84.7423 34.3615 83.6299 34.8205 82.5306L34.8454 82.4927L57.1785 49.5988C57.8611 48.5645 58.7625 48.1018 59.8272 48.1018H70.6454C71.0512 48.1125 71.4474 48.2095 71.7858 48.3728C72.0531 48.5018 72.3051 48.6698 72.5216 48.8817C72.7203 49.0746 72.8918 49.303 73.0468 49.5633C73.0468 49.5633 71.6202 48.3562 70.6501 48.3562H59.8272C58.8524 48.3562 58.0256 48.7799 57.3915 49.7408L35.0524 82.6311C34.6325 83.6465 34.688 84.6749 35.205 85.4547C35.6876 86.1825 36.5015 86.708 37.5071 86.7115L39.1466 86.8299H39.1455Z" fill="white"/>
</g>
<path d="M73.3473 51.6188C73.3437 51.6366 73.3402 51.6555 73.3355 51.6732V51.6803C73.2905 51.8768 73.2266 52.0614 73.1426 52.2294C73.1284 52.2626 73.1107 52.2945 73.0953 52.3253C73.0918 52.3336 73.0882 52.3442 73.0835 52.3513C73.0823 52.3537 73.0823 52.3549 73.0799 52.3561C73.0693 52.3774 73.061 52.3975 73.048 52.4188L71.9845 54.027C70.1899 56.7571 67.7211 60.4754 65.1174 64.4149C65.1174 64.4161 65.115 64.4161 65.115 64.4185C58.6608 74.1851 51.369 85.2133 51.369 85.2133C51.2744 85.3635 51.175 85.502 51.0721 85.631C51.0425 85.67 51.0106 85.7067 50.9798 85.7446C50.9751 85.7517 50.9692 85.7588 50.9621 85.7659C50.7385 86.0286 50.4901 86.2475 50.218 86.4168C50.2109 86.4215 50.2038 86.4251 50.1955 86.431C50.1659 86.4499 50.134 86.4665 50.1044 86.483C50.076 86.4984 50.05 86.515 50.0216 86.5304C50.0145 86.5327 50.0098 86.5351 50.0039 86.5375C49.6158 86.7387 49.1923 86.8404 48.7322 86.8404H48.5902C48.5677 86.8416 48.5453 86.8416 48.5216 86.8416H48.4388C48.4388 86.8416 48.4376 86.8404 48.4353 86.8404C47.3694 86.8416 43.7696 86.8475 40.9057 86.8475C39.3288 86.8475 37.979 86.8464 37.3958 86.8428C37.2397 86.8416 37.1391 86.8357 37.106 86.8345C36.6636 86.8061 36.2472 86.6712 35.8852 86.4617L35.8745 86.457C35.826 86.4274 35.7764 86.3978 35.729 86.3659C35.69 86.3399 35.6533 86.3138 35.6167 86.2866L35.6025 86.2724C34.7626 85.6263 34.3757 84.5115 34.5792 83.3494C34.6265 83.076 34.7046 82.8015 34.8193 82.5281L51.1785 58.4435L57.1655 49.6295C57.7972 48.6721 58.6596 48.1029 59.7302 48.1029L70.5567 48.0994C71.0795 48.0994 71.5539 48.2343 71.9597 48.4639C71.962 48.4639 71.962 48.4662 71.9632 48.4662C71.9644 48.4662 71.9668 48.4674 71.9679 48.4698C72.059 48.5207 72.1466 48.5763 72.2306 48.6378C72.2353 48.6414 72.2388 48.6461 72.2448 48.6496C72.3287 48.7112 72.4092 48.7775 72.4861 48.8496C72.4896 48.8532 72.4932 48.8567 72.4967 48.8603C72.7854 49.1301 73.0149 49.4591 73.1722 49.8212V49.8236C73.41 50.3715 73.4833 50.9975 73.3473 51.6188Z" fill="white"/>
<g opacity="0.3">
<path d="M104.77 26.0149C105.813 26.0149 106.661 26.6397 106.661 27.687L106.709 90.5056C106.721 91.1044 106.519 91.6488 106.137 92.0369C105.748 92.4322 105.21 92.644 104.573 92.6345L91.7448 92.6263C90.8374 92.6263 90.1797 93.2759 90.1797 94.1706L90.1631 101.574C90.1631 101.981 90.2767 102.546 90.6209 102.883C91.0421 103.297 91.7093 103.445 91.7093 103.445C91.6111 103.44 91.5141 103.44 91.423 103.425C90.4482 103.265 89.9064 102.53 89.9064 101.572L89.923 94.1682C89.923 93.1268 90.6884 92.3694 91.7436 92.3694L104.572 92.3777C105.138 92.3848 105.614 92.2002 105.953 91.8559C106.286 91.5186 106.463 91.0393 106.453 90.5068L106.457 27.687C106.457 26.7805 105.647 26.0326 104.769 26.0137L104.77 26.0149Z" fill="white"/>
<path d="M91.745 26.0208C90.6011 26.0208 89.9079 25.1971 89.9079 24.151V16.5607C89.9079 15.75 90.6402 14.8838 91.6705 14.8838C91.6977 14.8838 111.493 14.9039 115.712 14.8862C116.25 14.8838 116.688 15.1856 116.688 15.1856L116.336 15.1004C116.29 15.0921 116.164 15.0897 116.118 15.0897C114.684 15.0897 91.7001 15.0897 91.6705 15.0921C90.8152 15.1299 90.1634 15.6861 90.1634 16.5607L90.1102 24.151C90.1102 25.0575 90.7703 26.0172 91.6717 26.0172" fill="white"/>
</g>
<path d="M37.9661 103.448H13.817C12.8387 103.448 12.0461 102.656 12.0461 101.677V16.6553C12.0461 15.6767 12.8376 14.8838 13.8159 14.8838H37.9649C38.9432 14.8838 39.7358 15.6767 39.7358 16.6553V24.183C39.7358 25.1616 38.9432 25.9545 37.9649 25.9545H24.8813C23.903 25.9545 23.1104 26.7474 23.1104 27.7261V90.5459C23.1104 91.5245 23.903 92.3174 24.8813 92.3174H37.9649C38.9432 92.3174 39.7358 93.1103 39.7358 94.089V101.679C39.7358 102.658 38.9444 103.451 37.9661 103.451V103.448Z" fill="white"/>
<g opacity="0.3">
<path d="M13.7768 103.447C13.1131 103.447 12.5583 103.052 12.2153 102.434C12.5169 102.977 13.1995 103.19 13.7768 103.19L37.94 103.177C38.8899 103.177 39.5086 102.48 39.5086 101.805L39.5666 94.2285C39.5666 94.2285 39.5441 93.6309 39.4968 93.5504L39.3595 92.9966L39.4778 93.167C39.4778 93.167 39.7357 93.593 39.7346 94.0273C39.7346 94.1717 39.7322 94.3362 39.7322 94.4297L39.7346 101.805C39.7346 102.62 38.9349 103.437 37.94 103.437L13.7768 103.45V103.447Z" fill="white"/>
<path d="M24.7204 92.3078C24.2578 92.3078 22.8324 91.7161 22.8324 90.6688V27.8479C22.8324 26.8124 23.6214 25.655 24.6778 25.655L37.6206 25.6444C38.5054 25.6444 39.4577 25.2254 39.4577 24.3047V16.7771C39.4577 15.8718 38.7207 14.8825 37.8146 14.8825C38.4605 14.8553 39.039 15.1263 39.3903 15.602C39.621 15.9156 39.7594 16.318 39.7334 16.7842L39.7357 24.242C39.7357 24.242 39.7334 24.3556 39.705 24.4917C39.6553 24.7296 39.5713 24.971 39.4293 25.1781C39.2626 25.4242 39.0224 25.6278 38.7562 25.7662C38.4286 25.9367 38.037 25.9615 37.6123 25.952L24.7973 25.9544C24.5015 25.9509 24.2354 26.0562 24.0035 26.1852C23.4108 26.5153 23.0559 27.1745 23.1115 27.8479L23.1139 90.67C23.1139 91.038 23.2724 91.3528 23.4794 91.6238C23.7799 92.0191 24.2578 92.2723 24.7322 92.309L24.7216 92.3055L24.7204 92.3078Z" fill="white"/>
</g>
<path d="M91.6702 14.8835H115.712C116.685 14.8835 117.474 15.6764 117.474 16.6551V101.678C117.474 102.657 116.686 103.449 115.713 103.449H91.6714C90.6978 103.449 89.9088 102.657 89.9088 101.678V94.1502C89.9088 93.1715 90.6978 92.3787 91.6714 92.3787H104.697C105.671 92.3787 106.46 91.5858 106.46 90.6071V27.7873C106.46 26.8087 105.671 26.0158 104.697 26.0158H91.6714C90.6978 26.0158 89.9088 25.2229 89.9088 24.2442V16.6539C89.9088 15.6752 90.6966 14.8823 91.6702 14.8823V14.8835Z" fill="white"/>
<g opacity="0.3">
<path d="M116.277 103.356C116.85 103.086 117.22 102.312 117.22 101.677L117.234 16.738C117.234 16.0836 116.857 15.2457 116.291 14.9854C116.896 15.1771 117.318 15.6966 117.448 16.325C117.475 16.4587 117.477 16.596 117.477 16.738V101.677C117.477 102.41 117.05 103.066 116.277 103.356Z" fill="white"/>
</g>
<g opacity="0.4">
<path d="M89.9076 24.1475C89.9076 25.0539 90.8433 25.7912 91.7447 25.7912H104.77C105.813 25.7912 106.45 26.551 106.45 27.5983C106.374 26.816 105.672 26.0184 104.77 26.0184H91.7447C90.7025 26.0184 89.9797 25.2315 89.9182 24.4433L89.9088 24.1486L89.9076 24.1475Z" fill="white"/>
</g>
<g opacity="0.4">
<path d="M13.3687 14.9404L13.6644 15.1227C12.821 15.2741 12.3029 16.028 12.3029 16.6623L12.2887 101.601C12.2887 102.255 12.666 103.093 13.2315 103.354C12.627 103.162 12.2047 102.642 12.0745 102.014C12.0473 101.88 12.0461 101.743 12.0461 101.601V16.6635C12.0461 15.9298 12.5643 15.1203 13.3699 14.9404H13.3687Z" fill="white"/>
</g>
<path d="M38.3529 103.456H14.2038C13.2255 103.456 12.433 102.663 12.433 101.684V16.6612C12.433 15.6825 13.2244 14.8896 14.2027 14.8896H38.3517C39.33 14.8896 40.1226 15.6825 40.1226 16.6612V24.1888C40.1226 25.1675 39.33 25.9604 38.3517 25.9604H25.2681C24.2898 25.9604 23.4972 26.7533 23.4972 27.7319V90.5517C23.4972 91.5304 24.2898 92.3233 25.2681 92.3233H38.3517C39.33 92.3233 40.1226 93.1161 40.1226 94.0948V101.685C40.1226 102.664 39.3312 103.457 38.3529 103.457V103.456Z" fill="white"/>
<g opacity="0.3">
<path d="M14.1636 103.453C13.5 103.453 12.9452 103.058 12.6021 102.44C12.9038 102.983 13.5863 103.196 14.1636 103.196L38.3268 103.183C39.2768 103.183 39.8954 102.486 39.8954 101.811L39.9534 94.2344C39.9534 94.2344 39.9309 93.6367 39.8836 93.5563L39.7464 93.0024L39.8647 93.1729C39.8647 93.1729 40.1226 93.5989 40.1214 94.0332C40.1214 94.1776 40.119 94.3421 40.119 94.4355L40.1214 101.811C40.1214 102.626 39.3217 103.442 38.3268 103.442L14.1636 103.455V103.453Z" fill="white"/>
<path d="M25.106 92.3137C24.6435 92.3137 23.218 91.722 23.218 90.6747V27.8537C23.218 26.8182 24.0071 25.6609 25.0634 25.6609L38.0062 25.6502C38.8911 25.6502 39.8434 25.2313 39.8434 24.3106V16.783C39.8434 15.8777 39.1064 14.8883 38.2003 14.8883C38.8461 14.8611 39.4246 15.1321 39.776 15.6079C40.0066 15.9215 40.145 16.3238 40.119 16.7901L40.1214 24.2479C40.1214 24.2479 40.119 24.3615 40.0906 24.4976C40.0409 24.7354 39.9569 24.9769 39.815 25.184C39.6482 25.4301 39.4081 25.6336 39.1419 25.7721C38.8142 25.9425 38.4226 25.9674 37.998 25.9579L25.1829 25.9603C24.8872 25.9567 24.621 26.062 24.3892 26.191C23.7965 26.5212 23.4416 27.1804 23.4972 27.8537L23.4996 90.6758C23.4996 91.0439 23.6581 91.3587 23.8651 91.6297C24.1656 92.0249 24.6435 92.2782 25.1178 92.3149L25.1072 92.3113L25.106 92.3137Z" fill="white"/>
</g>
<path d="M92.0571 14.8896H116.098C117.072 14.8896 117.861 15.6825 117.861 16.6612V101.684C117.861 102.663 117.073 103.456 116.1 103.456H92.0582C91.0846 103.456 90.2956 102.663 90.2956 101.684V94.1564C90.2956 93.1777 91.0846 92.3848 92.0582 92.3848H105.084C106.057 92.3848 106.846 91.5919 106.846 90.6133V27.7947C106.846 26.816 106.057 26.0231 105.084 26.0231H92.0582C91.0846 26.0231 90.2956 25.2302 90.2956 24.2515V16.6612C90.2956 15.6825 91.0835 14.8896 92.0571 14.8896Z" fill="white"/>
<g opacity="0.3">
<path d="M116.663 103.362C117.235 103.092 117.606 102.318 117.606 101.683L117.62 16.7438C117.62 16.0894 117.242 15.2516 116.677 14.9912C117.281 15.1829 117.704 15.7024 117.834 16.3308C117.861 16.4645 117.862 16.6018 117.862 16.7438V101.683C117.862 102.416 117.435 103.072 116.663 103.362Z" fill="white"/>
</g>
<g opacity="0.3">
<path d="M116.354 103.437C116.295 103.445 116.13 103.454 116.07 103.454L92.6308 103.448H92.4332C92.1115 103.452 91.863 103.457 91.6477 103.407C91.4608 103.364 91.2112 103.265 90.9995 103.098C90.9841 103.085 90.9309 103.039 90.8824 102.995C90.8374 102.955 90.7984 102.919 90.7984 102.919C90.7984 102.919 91.2585 103.144 91.462 103.179C91.8914 103.253 92.1256 103.228 92.432 103.226H92.6308L116.127 103.25C116.476 103.25 117.09 103.098 117.378 102.902L117.262 103.008C117.08 103.179 116.832 103.313 116.568 103.389C116.568 103.389 116.413 103.426 116.354 103.434V103.437Z" fill="white"/>
</g>
</svg>
