<svg width="348" height="61" viewBox="0 0 348 61" fill="none" xmlns="http://www.w3.org/2000/svg">
<mask id="mask0_182_1381" style="mask-type:luminance" maskUnits="userSpaceOnUse" x="0" y="0" width="348" height="61">
<path d="M0 0H347.434V61H0V0Z" fill="white"/>
</mask>
<g mask="url(#mask0_182_1381)">
<path d="M18.3712 30.2667C18.3712 21.4348 25.7793 14.2422 34.6274 14.2422C38.7331 14.1746 42.6929 15.766 45.6114 18.6567L42.5083 21.7464C40.395 19.7071 37.5632 18.5839 34.6274 18.6199C28.1834 18.6199 23.1462 23.8099 23.1462 30.2667C23.1462 36.7235 28.1744 41.9104 34.6274 41.9104C38.8075 41.9104 41.1873 40.2312 42.7127 38.7049C43.9636 37.4532 44.7813 35.652 45.0956 33.2098H34.6274V28.8197H49.352C49.5187 29.7258 49.5975 30.646 49.5867 31.5674C49.5867 34.849 48.69 38.9125 45.7976 41.8065C42.9782 44.7252 39.3841 46.2728 34.6274 46.2728C25.7793 46.2728 18.3712 39.0987 18.3712 30.2667Z" fill="black"/>
</g>
<mask id="mask1_182_1381" style="mask-type:luminance" maskUnits="userSpaceOnUse" x="0" y="0" width="348" height="61">
<path d="M0 0H347.434V61H0V0Z" fill="white"/>
</mask>
<g mask="url(#mask1_182_1381)">
<path d="M61.477 25.6539C55.7746 25.6539 51.1278 29.9919 51.1278 35.9694C51.1278 41.947 55.7746 46.2728 61.477 46.2728C67.1794 46.2728 71.8265 41.8951 71.8265 35.9573C71.8265 30.0193 67.1794 25.6539 61.477 25.6539ZM61.477 42.2215C58.3527 42.2215 55.6588 39.642 55.6588 35.9694C55.6588 32.2969 58.3527 29.717 61.477 29.717C64.6013 29.717 67.2955 32.257 67.2955 35.9694C67.2955 39.6816 64.6013 42.2246 61.477 42.2246V42.2215Z" fill="black"/>
</g>
<mask id="mask2_182_1381" style="mask-type:luminance" maskUnits="userSpaceOnUse" x="0" y="0" width="348" height="61">
<path d="M0 0H347.434V61H0V0Z" fill="white"/>
</mask>
<g mask="url(#mask2_182_1381)">
<path d="M84.0552 25.6539C78.3528 25.6539 73.7057 29.9919 73.7057 35.9694C73.7057 41.947 78.3528 46.2728 84.0552 46.2728C89.7577 46.2728 94.4044 41.8951 94.4044 35.9573C94.4044 30.0193 89.7577 25.6539 84.0552 25.6539ZM84.0552 42.2215C80.9308 42.2215 78.2367 39.642 78.2367 35.9694C78.2367 32.2969 80.9308 29.717 84.0552 29.717C87.1795 29.717 89.8735 32.257 89.8735 35.9694C89.8735 39.6816 87.1795 42.2246 84.0552 42.2246V42.2215Z" fill="black"/>
</g>
<mask id="mask3_182_1381" style="mask-type:luminance" maskUnits="userSpaceOnUse" x="0" y="0" width="348" height="61">
<path d="M0 0H347.434V61H0V0Z" fill="white"/>
</mask>
<g mask="url(#mask3_182_1381)">
<path d="M119.189 15.3383H123.72V45.6622H119.189V15.3383Z" fill="black"/>
</g>
<mask id="mask4_182_1381" style="mask-type:luminance" maskUnits="userSpaceOnUse" x="0" y="0" width="348" height="61">
<path d="M0 0H347.434V61H0V0Z" fill="white"/>
</mask>
<g mask="url(#mask4_182_1381)">
<path d="M119.189 15.3383H123.72V45.6622H119.189V15.3383Z" fill="black"/>
</g>
<mask id="mask5_182_1381" style="mask-type:luminance" maskUnits="userSpaceOnUse" x="0" y="0" width="348" height="61">
<path d="M0 0H347.434V61H0V0Z" fill="white"/>
</mask>
<g mask="url(#mask5_182_1381)">
<path d="M136.141 42.2245C133.837 42.2245 132.195 41.1681 131.143 39.0985L144.931 33.3925L144.467 32.2294C143.607 29.9244 140.992 25.6659 135.64 25.6659C130.288 25.6659 125.916 29.8482 125.916 35.9814C125.916 41.7636 130.292 46.297 136.15 46.297C139.601 46.3148 142.83 44.5938 144.742 41.7178L141.227 39.3732C140.046 41.0829 138.444 42.2245 136.141 42.2245ZM135.79 29.6407C137.587 29.6407 139.109 30.5383 139.616 31.8296L130.398 35.6577C130.279 31.6708 133.483 29.6407 135.786 29.6407H135.79Z" fill="black"/>
</g>
<mask id="mask6_182_1381" style="mask-type:luminance" maskUnits="userSpaceOnUse" x="0" y="0" width="348" height="61">
<path d="M0 0H347.434V61H0V0Z" fill="white"/>
</mask>
<g mask="url(#mask6_182_1381)">
<path d="M111.768 26.2795V27.9556H111.613C110.597 26.7342 108.644 25.6506 106.185 25.6506C101.028 25.6506 96.3022 30.1839 96.3022 36.006C96.3022 41.8276 101.028 46.2726 106.185 46.2726C108.644 46.2726 110.597 45.1796 111.613 43.9279H111.768V45.4118C111.768 49.3589 109.66 51.4684 106.276 51.4684C103.503 51.4684 101.785 49.475 101.089 47.8052L97.1443 49.4475C98.6638 53.1614 102.287 55.5782 106.298 55.553C111.609 55.553 116.101 52.427 116.101 44.8071V26.2795H111.768ZM106.581 42.2244C103.457 42.2244 100.839 39.605 100.839 36.0119C100.839 32.4187 103.457 29.7199 106.581 29.7199C109.706 29.7199 112.073 32.376 112.073 36.0119C112.073 39.6477 109.66 42.2244 106.575 42.2244H106.581Z" fill="black"/>
</g>
<mask id="mask7_182_1381" style="mask-type:luminance" maskUnits="userSpaceOnUse" x="0" y="0" width="348" height="61">
<path d="M0 0H347.434V61H0V0Z" fill="white"/>
</mask>
<g mask="url(#mask7_182_1381)">
<path d="M241.698 14.8105C233.032 14.8105 226.008 21.8349 226.008 30.5C226.008 39.1652 233.032 46.1897 241.698 46.1897H313.373C322.038 46.1897 329.063 39.1651 329.063 30.5C329.063 21.8349 322.038 14.8105 313.373 14.8105H241.698ZM238.334 23.4871H246.694V25.4901H240.453V29.3819H246.078V31.3849H240.453V35.2766H246.694V37.2796H238.334V23.4871ZM293.023 23.4871H295.084V37.2796H293.139V35.9691H293.023C292.74 36.419 292.322 36.8008 291.77 37.1156C291.218 37.4304 290.582 37.5878 289.863 37.5878C288.977 37.5878 288.175 37.3662 287.456 36.9234C286.737 36.4807 286.172 35.861 285.761 35.0646C285.35 34.2685 285.145 33.3693 285.145 32.3674C285.145 31.3658 285.35 30.4699 285.761 29.6801C286.172 28.8906 286.737 28.271 287.456 27.8212C288.175 27.3718 288.977 27.1469 289.863 27.1469C290.582 27.1469 291.218 27.3043 291.77 27.6191C292.322 27.9339 292.74 28.3224 293.023 28.7838H293.139L293.023 27.417V23.4871ZM315.003 23.4871H317.064V37.2796H315.118V35.9691H315.003C314.72 36.419 314.302 36.8008 313.75 37.1156C313.197 37.4304 312.562 37.5878 311.843 37.5878C310.957 37.5878 310.155 37.3662 309.436 36.9234C308.717 36.4807 308.152 35.861 307.741 35.0646C307.33 34.2685 307.125 33.3693 307.125 32.3674C307.125 31.3658 307.33 30.4699 307.741 29.6801C308.152 28.8906 308.717 28.271 309.436 27.8212C310.155 27.3718 310.957 27.1469 311.843 27.1469C312.562 27.1469 313.197 27.3043 313.75 27.6191C314.302 27.9339 314.72 28.3224 315.003 28.7838H315.118L315.003 27.417V23.4871ZM258.733 24.6816H260.814V27.4551H263.221V29.2659H260.814V33.986C260.814 34.5253 260.917 34.9038 261.122 35.1225C261.341 35.3669 261.675 35.4887 262.125 35.4887C262.355 35.4887 262.554 35.4601 262.721 35.4025C262.887 35.3441 263.074 35.2509 263.279 35.1225V37.1454C262.843 37.3376 262.323 37.4337 261.72 37.4337C261.283 37.4337 260.875 37.3662 260.496 37.2316C260.117 37.097 259.806 36.9077 259.562 36.6633C259.009 36.1365 258.733 35.3918 258.733 34.4284V29.2659H257.02V27.4551H258.733V24.6816ZM268.751 27.1469C269.739 27.1469 270.593 27.3623 271.312 27.793C272.031 28.223 272.58 28.8165 272.959 29.5741C273.338 30.332 273.527 31.1923 273.527 32.1553C273.527 32.4129 273.514 32.6316 273.489 32.8114H265.899C265.989 33.7483 266.322 34.4706 266.9 34.9784C267.479 35.4854 268.153 35.7389 268.923 35.7389C269.553 35.7389 270.092 35.5947 270.542 35.3064C270.991 35.0173 271.351 34.6346 271.62 34.1583L273.335 34.9867C272.885 35.7964 272.288 36.4326 271.542 36.8953C270.798 37.3567 269.906 37.5878 268.867 37.5878C267.916 37.5878 267.058 37.3629 266.294 36.9135C265.53 36.4641 264.934 35.8445 264.503 35.0546C264.073 34.2652 263.858 33.3759 263.858 32.3872C263.858 31.4495 264.066 30.5797 264.483 29.7778C264.9 28.9751 265.481 28.336 266.226 27.861C266.971 27.3851 267.813 27.1469 268.751 27.1469ZM280.155 27.1469C281.336 27.1469 282.236 27.4973 282.852 28.1973C283.468 28.8977 283.776 29.8574 283.776 31.0767V37.2796H281.715V31.3468C281.715 30.576 281.522 30.0011 281.137 29.6221C280.751 29.2435 280.225 29.0538 279.558 29.0538C279.07 29.0538 278.636 29.1893 278.258 29.4597C277.879 29.7294 277.583 30.0889 277.371 30.5383C277.159 30.9869 277.053 31.4744 277.053 32.0012V37.2796H274.974V27.4551H276.937V28.8037H277.053C277.336 28.3157 277.759 27.9173 278.324 27.6091C278.889 27.301 279.499 27.1469 280.155 27.1469ZM301.326 27.1469C302.314 27.1469 303.168 27.3623 303.887 27.793C304.606 28.223 305.155 28.8165 305.534 29.5741C305.913 30.332 306.102 31.1923 306.102 32.1553C306.102 32.4129 306.09 32.6316 306.064 32.8114H298.475C298.564 33.7483 298.898 34.4706 299.475 34.9784C300.054 35.4854 300.728 35.7389 301.498 35.7389C302.128 35.7389 302.667 35.5947 303.117 35.3064C303.566 35.0173 303.926 34.6346 304.195 34.1583L305.91 34.9867C305.46 35.7964 304.863 36.4326 304.118 36.8953C303.373 37.3567 302.481 37.5878 301.442 37.5878C300.491 37.5878 299.633 37.3629 298.869 36.9135C298.106 36.4641 297.509 35.8445 297.078 35.0546C296.648 34.2652 296.434 33.3759 296.434 32.3872C296.434 31.4495 296.641 30.5797 297.058 29.7778C297.476 28.9751 298.056 28.336 298.801 27.861C299.547 27.3851 300.388 27.1469 301.326 27.1469ZM247.426 27.4551H249.833L252.03 30.6924H252.088L254.187 27.4551H256.692L253.243 32.2911L256.71 37.2796H254.283L252.05 33.9479H251.992L249.815 37.2796H247.368L250.816 32.2911L247.426 27.4551ZM268.769 28.9196C268.076 28.9196 267.489 29.1317 267.008 29.5558C266.526 29.9791 266.195 30.5441 266.015 31.2507H271.466C271.441 30.8908 271.325 30.5312 271.12 30.1721C270.914 29.8122 270.615 29.5136 270.224 29.2758C269.833 29.0385 269.348 28.9196 268.769 28.9196ZM301.344 28.9196C300.652 28.9196 300.064 29.1317 299.583 29.5558C299.101 29.9791 298.77 30.5441 298.591 31.2507H304.041C304.016 30.8908 303.901 30.5312 303.695 30.1721C303.49 29.8122 303.191 29.5136 302.799 29.2758C302.408 29.0385 301.923 28.9196 301.344 28.9196ZM290.171 29.0538C289.658 29.0538 289.173 29.1922 288.717 29.468C288.262 29.7443 287.896 30.1332 287.62 30.6344C287.344 31.1347 287.206 31.7125 287.206 32.3674C287.206 33.0226 287.344 33.6008 287.62 34.102C287.896 34.6023 288.262 34.9908 288.717 35.2667C289.173 35.5429 289.658 35.6809 290.171 35.6809C290.685 35.6809 291.17 35.5429 291.626 35.2667C292.082 34.9908 292.448 34.6023 292.724 34.102C293 33.6008 293.139 33.0226 293.139 32.3674C293.139 31.7125 293 31.1347 292.724 30.6344C292.448 30.1332 292.082 29.7443 291.626 29.468C291.17 29.1922 290.685 29.0538 290.171 29.0538ZM312.151 29.0538C311.638 29.0538 311.153 29.1922 310.697 29.468C310.241 29.7443 309.876 30.1332 309.6 30.6344C309.324 31.1347 309.186 31.7125 309.186 32.3674C309.186 33.0226 309.324 33.6008 309.6 34.102C309.876 34.6023 310.241 34.9908 310.697 35.2667C311.153 35.5429 311.638 35.6809 312.151 35.6809C312.665 35.6809 313.149 35.5429 313.606 35.2667C314.062 34.9908 314.428 34.6023 314.704 34.102C314.98 33.6008 315.118 33.0226 315.118 32.3674C315.118 31.7125 314.98 31.1347 314.704 30.6344C314.428 30.1332 314.062 29.7443 313.606 29.468C313.149 29.1922 312.665 29.0538 312.151 29.0538Z" fill="black"/>
</g>
<mask id="mask8_182_1381" style="mask-type:luminance" maskUnits="userSpaceOnUse" x="0" y="0" width="348" height="61">
<path d="M0 0H347.434V61H0V0Z" fill="white"/>
</mask>
<g mask="url(#mask8_182_1381)">
<path d="M173.684 45.7073H158.392V15.2927H173.684V45.7073Z" fill="black"/>
</g>
<mask id="mask9_182_1381" style="mask-type:luminance" maskUnits="userSpaceOnUse" x="0" y="0" width="348" height="61">
<path d="M0 0H347.434V61H0V0Z" fill="white"/>
</mask>
<g mask="url(#mask9_182_1381)">
<path d="M217.737 30.5C217.737 39.1651 210.713 46.1897 202.047 46.1897C193.382 46.1897 186.358 39.1651 186.358 30.5C186.358 21.8349 193.382 14.8103 202.047 14.8103C210.713 14.8103 217.737 21.8349 217.737 30.5Z" fill="black"/>
</g>
<mask id="mask10_182_1381" style="mask-type:luminance" maskUnits="userSpaceOnUse" x="0" y="0" width="348" height="61">
<path d="M0 0H347.434V61H0V0Z" fill="white"/>
</mask>
<g mask="url(#mask10_182_1381)">
<path d="M178.698 48.9468H175.75L184.139 12.0536H187.087L178.698 48.9468Z" fill="black"/>
</g>
</svg>
