<svg width="157" height="158" viewBox="0 0 157 158" fill="none" xmlns="http://www.w3.org/2000/svg">
<path d="M9.38906 89.1846C22.7203 125.373 48.857 98.4753 59.0862 81.1805C71.1952 60.7157 78.0832 34.7874 81.4113 8.64575C81.4957 8.64652 81.5828 8.65224 81.666 8.65644L82.7909 8.71983C82.9765 8.73128 83.1663 8.74388 83.3568 8.75305C72.8104 91.5433 43.0362 131.957 21.2995 118.708C15.195 110.034 11.0463 99.9568 9.38409 89.1873L9.38906 89.1846Z" fill="#428EFF" stroke="#202124" stroke-width="2" stroke-linecap="round" stroke-linejoin="round"/>
<path d="M44.5514 139.64C35.249 134.47 27.3254 127.27 21.3033 118.709C43.0397 131.958 72.8131 91.5482 83.3557 8.75647C83.4184 8.76182 83.4703 8.76372 83.5295 8.76792L85.1099 8.9031C85.2115 8.91341 85.3176 8.92181 85.4188 8.93212C79.2971 56.9824 65.7372 122.418 44.543 139.641L44.5468 139.642L44.5514 139.64Z" fill="#FF5145" stroke="#202124" stroke-width="2" stroke-linecap="round" stroke-linejoin="round"/>
<path d="M85.4215 8.92517L85.4684 8.92899L87.3368 9.14282L69.6671 147.86C60.5689 146.7 52.105 143.837 44.5514 139.64C65.7467 122.414 79.3017 56.98 85.4238 8.92975L85.4215 8.92517Z" fill="#38A852" stroke="#202124" stroke-width="2" stroke-linecap="round" stroke-linejoin="round"/>
<path d="M142.733 106.168C120.756 137.858 102.196 105.267 96.627 85.9611C90.0337 63.1132 89.8661 36.2877 93.1988 10.1433C93.1152 10.1233 93.0312 10.1052 92.9468 10.0891L91.844 9.86764C91.6585 9.83213 91.474 9.79318 91.2873 9.76111C80.7443 92.5529 99.4316 139.137 123.8 131.762C131.884 124.893 138.426 116.179 142.737 106.169L142.733 106.168Z" fill="#202124" stroke="#202124" stroke-width="2" stroke-linecap="round" stroke-linejoin="round"/>
<path d="M89.2434 9.41013C89.2434 9.41013 89.2121 9.40784 89.2014 9.40402L87.338 9.1394L69.6678 147.856C78.766 149.015 87.6774 148.366 96.0463 146.194C79.8478 124.205 83.1251 57.4611 89.2434 9.41013Z" fill="#FFBB01" stroke="#202124" stroke-width="2" stroke-linecap="round" stroke-linejoin="round"/>
<path d="M70.2062 28.5004L51.6231 26.1342L46.9138 63.09L65.4969 65.4563L70.2062 28.5004ZM99.8894 70.4355C110.419 71.7754 120.038 64.3283 121.382 53.8001C122.726 43.2716 115.277 33.6473 104.743 32.3059C94.2137 30.966 84.594 38.4131 83.2503 48.9412C81.9104 59.4709 89.3609 69.0918 99.8894 70.4355Z" fill="#428EFF" stroke="#202124" stroke-width="2" stroke-linecap="round" stroke-linejoin="round"/>
<path d="M88.2906 1.63011C45.8382 -3.78059 7.0373 26.2528 1.62928 68.7098C-3.77723 111.164 26.252 149.964 68.7094 155.372C111.167 160.779 149.963 130.748 155.371 88.2915C160.777 45.8379 130.748 7.03776 88.2906 1.63011ZM69.6644 147.855C31.3576 142.976 4.26513 107.967 9.1424 69.6637C14.0197 31.3603 49.0262 4.2633 87.3333 9.14171C125.64 14.0201 152.736 49.0305 147.855 87.3327C142.975 125.635 107.968 152.732 69.6644 147.855Z" fill="#FFBB01" stroke="#202124" stroke-width="2" stroke-linecap="round" stroke-linejoin="round"/>
</svg>
