<svg width="293" height="292" viewBox="0 0 293 292" fill="none" xmlns="http://www.w3.org/2000/svg">
<path d="M21.071 183.229C55.2321 246.786 96.6185 190.12 111.046 155.404C128.127 114.325 134.108 64.4893 133.437 15.1891C133.593 15.1685 133.756 15.1563 133.911 15.1424L136.012 14.9656C136.359 14.9383 136.714 14.912 137.069 14.8792C139.181 171.013 94.5907 253.669 50.8569 234.81C37.2793 220.336 26.9582 202.752 21.0625 183.235L21.071 183.229Z" fill="#428EFF" stroke="#202124" stroke-width="2" stroke-linecap="round" stroke-linejoin="round"/>
<path d="M99.4069 267.506C80.8213 260.361 64.2594 249.096 50.8643 234.811C94.5975 253.671 139.188 171.022 137.068 14.8858C137.185 14.8793 137.282 14.8692 137.393 14.8615L140.356 14.6987C140.547 14.6912 140.746 14.679 140.936 14.6716C142.161 105.29 134.152 230.062 99.3917 267.511L99.399 267.512L99.4069 267.506Z" fill="#FF5145" stroke="#202124" stroke-width="2" stroke-linecap="round" stroke-linejoin="round"/>
<path d="M140.939 14.6583L141.027 14.6531L144.544 14.5606L148.085 276.166C130.927 276.398 114.498 273.307 99.4068 267.506C134.168 230.051 142.168 105.284 140.944 14.6662L140.939 14.6583Z" fill="#38A852" stroke="#202124" stroke-width="2" stroke-linecap="round" stroke-linejoin="round"/>
<path d="M272.544 179.822C240.117 244.278 197.21 188.754 181.844 154.444C163.654 113.84 156.329 64.1872 155.666 14.881C155.506 14.8658 155.345 14.8542 155.185 14.8464L153.084 14.7245C152.731 14.7073 152.379 14.6833 152.025 14.6728C154.144 170.809 200.946 252.223 244.161 232.187C257.342 217.349 267.184 199.495 272.552 179.823L272.544 179.822Z" fill="#202124" stroke="#202124" stroke-width="2" stroke-linecap="round" stroke-linejoin="round"/>
<path d="M148.146 14.5572C148.146 14.5572 148.088 14.5611 148.067 14.5569L144.545 14.5539L148.086 276.159C165.244 275.928 181.584 272.395 196.52 266.182C160.76 229.682 149.377 105.176 148.146 14.5572Z" fill="#FFBB01" stroke="#202124" stroke-width="2" stroke-linecap="round" stroke-linejoin="round"/>
<path d="M107.265 58.0202L70.2865 57.5604L69.3654 131.1L106.344 131.56L107.265 58.0202Z" fill="#428EFF" stroke="#202124" stroke-width="2" stroke-linecap="round" stroke-linejoin="round"/>
<path d="M204.693 126.701C224.962 129.28 243.478 114.944 246.064 94.6774C248.65 74.4098 234.311 55.8829 214.037 53.3006C193.768 50.7214 175.252 65.057 172.665 85.3238C170.086 105.594 184.427 124.114 204.693 126.701Z" fill="#428EFF" stroke="#202124" stroke-width="2" stroke-linecap="round" stroke-linejoin="round"/>
<path d="M164.683 2.17891C85.2559 -7.94427 12.6612 48.2469 2.54307 127.682C-7.57225 207.111 48.611 279.704 128.047 289.822C207.483 299.94 280.069 243.754 290.186 164.318C300.302 84.8896 244.118 12.2964 164.683 2.17891ZM129.834 275.758C58.1634 266.631 7.47463 201.13 16.5998 129.467C25.7249 57.8028 91.2206 7.10548 162.892 16.2328C234.562 25.3601 285.257 90.8628 276.125 162.525C266.994 234.186 201.497 284.884 129.834 275.758Z" fill="#FFBB01" stroke="#202124" stroke-width="2" stroke-linecap="round" stroke-linejoin="round"/>
</svg>
