<svg width="39" height="32" viewBox="0 0 39 32" fill="none" xmlns="http://www.w3.org/2000/svg">
<g id="Group">
<g id="Group_2">
<path id="Vector" d="M9.50541 31.9994H0.777676C0.425686 31.9994 0.137695 31.7114 0.137695 31.3594V0.640466C0.137695 0.288478 0.425686 0.000488281 0.777676 0.000488281H9.50541C9.85739 0.000488281 10.1454 0.288478 10.1454 0.640466V3.36037C10.1454 3.71236 9.85739 4.00035 9.50541 4.00035H4.77755C4.42556 4.00035 4.13757 4.28834 4.13757 4.64033V27.3356C4.13757 27.6875 4.42556 27.9755 4.77755 27.9755H9.50541C9.85739 27.9755 10.1454 28.2635 10.1454 28.6155V31.3594C10.1454 31.7114 9.85739 31.9994 9.50541 31.9994Z" fill="url(#paint0_linear_44_97)"/>
</g>
<g id="Group_3" opacity="0.3">
<g id="Group_4" opacity="0.3">
<path id="Vector_2" opacity="0.3" d="M0.756458 31.9999C0.516466 31.9999 0.316472 31.8559 0.188477 31.6319C0.300473 31.8319 0.540465 31.9039 0.756458 31.9039L9.49216 31.8959C9.83615 31.8959 10.0601 31.6479 10.0601 31.4L10.0841 28.6641C10.0841 28.6641 10.0761 28.4481 10.0601 28.4161L10.0121 28.2161L10.0521 28.2801C10.0521 28.2801 10.1481 28.4321 10.1481 28.5921C10.1481 28.6401 10.1481 28.704 10.1481 28.736V31.4C10.1481 31.6959 9.86014 31.9919 9.50016 31.9919L0.756458 31.9999Z" fill="url(#paint1_linear_44_97)"/>
</g>
<g id="Group_5" opacity="0.3">
<path id="Vector_3" opacity="0.3" d="M4.71855 27.9758C4.55056 27.9758 4.03857 27.7598 4.03857 27.3838V4.68861C4.03857 4.31262 4.32656 3.89663 4.70255 3.89663H9.38238C9.70237 3.89663 10.0464 3.74464 10.0464 3.41665V0.696741C10.0464 0.368752 9.78236 0.00876368 9.45438 0.00876368C9.68637 0.000763946 9.89436 0.096761 10.0224 0.272755C10.1024 0.384751 10.1583 0.528747 10.1423 0.696741V3.39265C10.1423 3.39265 10.1424 3.43265 10.1344 3.48065C10.1184 3.56864 10.0864 3.65664 10.0384 3.72864C9.97436 3.81664 9.89436 3.88863 9.79836 3.94463C9.67837 4.00863 9.54237 4.01663 9.38238 4.00863H4.75055C4.64655 4.00863 4.55055 4.04863 4.46256 4.08863C4.24657 4.20862 4.11857 4.44861 4.14257 4.68861V27.3918C4.14257 27.5278 4.19857 27.6398 4.27057 27.7358C4.37456 27.8718 4.55056 27.9678 4.71855 27.9758Z" fill="url(#paint2_linear_44_97)"/>
</g>
</g>
<g id="Group_6">
<path id="Vector_4" d="M28.9166 0.000488281H37.6043C37.9563 0.000488281 38.2442 0.288478 38.2442 0.640466V31.3594C38.2442 31.7114 37.9563 31.9994 37.6043 31.9994H28.9166C28.5646 31.9994 28.2766 31.7114 28.2766 31.3594V28.6395C28.2766 28.2875 28.5646 27.9995 28.9166 27.9995H33.6284C33.9804 27.9995 34.2684 27.7115 34.2684 27.3596V4.66433C34.2684 4.31234 33.9804 4.02435 33.6284 4.02435H28.9166C28.5646 4.02435 28.2766 3.73636 28.2766 3.38437V0.640466C28.2766 0.288478 28.5646 0.000488281 28.9166 0.000488281Z" fill="url(#paint3_linear_44_97)"/>
</g>
<g id="Group_7" opacity="0.3">
<g id="Group_8" opacity="0.3">
<path id="Vector_5" opacity="0.3" d="M37.8179 31.9664C38.0259 31.8704 38.1619 31.5904 38.1619 31.3584L38.1699 0.663472C38.1699 0.423481 38.0339 0.127491 37.8259 0.0314941C38.0419 0.103492 38.1939 0.287485 38.2419 0.519477C38.2499 0.567475 38.2499 0.615475 38.2499 0.671473V31.3664C38.2579 31.6224 38.0979 31.8624 37.8179 31.9664Z" fill="url(#paint4_linear_44_97)"/>
</g>
</g>
<g id="Group_9" opacity="0.3">
<path id="Vector_6" opacity="0.3" d="M37.7075 31.9918C37.6835 31.9918 37.6275 31.9998 37.6035 31.9998H29.1318H29.0598C28.9398 31.9998 28.8518 31.9998 28.7798 31.9838C28.7158 31.9678 28.6198 31.9358 28.5478 31.8718C28.5398 31.8638 28.5238 31.8478 28.5078 31.8318C28.4918 31.8158 28.4758 31.8078 28.4758 31.8078C28.4758 31.8078 28.6438 31.8878 28.7158 31.9038C28.8678 31.9278 28.9558 31.9198 29.0678 31.9198H29.1398L37.6355 31.9278C37.7635 31.9278 37.9875 31.8718 38.0915 31.7998L38.0515 31.8398C37.9875 31.9038 37.8995 31.9518 37.8035 31.9758C37.7795 31.9758 37.7235 31.9918 37.7075 31.9918Z" fill="url(#paint5_linear_44_97)"/>
</g>
</g>
<defs>
<linearGradient id="paint0_linear_44_97" x1="0.136071" y1="16.0009" x2="10.1456" y2="16.0009" gradientUnits="userSpaceOnUse">
<stop stop-color="white" stop-opacity="0.1"/>
<stop offset="1" stop-color="white" stop-opacity="0"/>
</linearGradient>
<linearGradient id="paint1_linear_44_97" x1="0.1923" y1="30.1132" x2="10.1398" y2="30.1132" gradientUnits="userSpaceOnUse">
<stop stop-color="white" stop-opacity="0.1"/>
<stop offset="1" stop-color="white" stop-opacity="0"/>
</linearGradient>
<linearGradient id="paint2_linear_44_97" x1="4.03215" y1="13.9885" x2="10.1422" y2="13.9885" gradientUnits="userSpaceOnUse">
<stop stop-color="white" stop-opacity="0.1"/>
<stop offset="1" stop-color="white" stop-opacity="0"/>
</linearGradient>
<linearGradient id="paint3_linear_44_97" x1="28.2768" y1="16.0009" x2="38.2416" y2="16.0009" gradientUnits="userSpaceOnUse">
<stop stop-color="white" stop-opacity="0.1"/>
<stop offset="1" stop-color="white" stop-opacity="0"/>
</linearGradient>
<linearGradient id="paint4_linear_44_97" x1="37.8218" y1="16.0017" x2="38.2553" y2="16.0017" gradientUnits="userSpaceOnUse">
<stop stop-color="white" stop-opacity="0.1"/>
<stop offset="1" stop-color="white" stop-opacity="0"/>
</linearGradient>
<linearGradient id="paint5_linear_44_97" x1="28.4665" y1="31.9024" x2="38.0741" y2="31.9024" gradientUnits="userSpaceOnUse">
<stop stop-color="white" stop-opacity="0.1"/>
<stop offset="1" stop-color="white" stop-opacity="0"/>
</linearGradient>
</defs>
</svg>
