<svg width="1440" height="319" viewBox="0 0 1440 319" fill="none" xmlns="http://www.w3.org/2000/svg">
<path d="M-16 170.236V319.204L121.266 319.203H125.694L183.257 291.008L535.031 291.01L557.171 266.717L801.805 266.716H857.778V244.717L1179.53 245.458L1225.06 245.088L1205 226.484L1029.24 226.647L946.205 226.484L941.904 210.261H857.358L857.38 195.494L621.129 195.495L632.445 181.855L404.161 181.853L425.809 170.219L257.991 170.236" fill="url(#paint0_linear_5619_3532)"/>
<path d="M1457.78 170.234H-9.56592V319.207H1457.78V170.234Z" stroke="white" stroke-width="1.8" stroke-linecap="round" stroke-linejoin="round"/>
<path d="M-9.604 181.854H1457.78" stroke="white" stroke-width="1.8" stroke-linecap="round" stroke-linejoin="round"/>
<path d="M-9.604 195.492H1456.62" stroke="white" stroke-width="1.8" stroke-linecap="round" stroke-linejoin="round"/>
<path d="M-9.604 210.26H1456.62" stroke="white" stroke-width="1.8" stroke-linecap="round" stroke-linejoin="round"/>
<path d="M-9.604 226.646H1456.62" stroke="white" stroke-width="1.8" stroke-linecap="round" stroke-linejoin="round"/>
<path d="M-9.604 245.459H1458.5" stroke="white" stroke-width="1.8" stroke-linecap="round" stroke-linejoin="round"/>
<path d="M-9.604 266.717H1458.23" stroke="white" stroke-width="1.8" stroke-linecap="round" stroke-linejoin="round"/>
<path d="M-9.604 291.008H1458.23" stroke="white" stroke-width="1.8" stroke-linecap="round" stroke-linejoin="round"/>
<path d="M858.128 170.234V319.202" stroke="white" stroke-width="1.8" stroke-linecap="round" stroke-linejoin="round"/>
<path d="M786.524 170.234L742.357 319.202" stroke="white" stroke-width="1.8" stroke-linecap="round" stroke-linejoin="round"/>
<path d="M715.41 170.219L625.987 319.203" stroke="white" stroke-width="1.8" stroke-linecap="round" stroke-linejoin="round"/>
<path d="M643.561 170.219L510.32 318.582" stroke="white" stroke-width="1.8" stroke-linecap="round" stroke-linejoin="round"/>
<path d="M572.589 170.219L394.74 319.285" stroke="white" stroke-width="1.8" stroke-linecap="round" stroke-linejoin="round"/>
<path d="M501.149 170.219L269.112 319.285" stroke="white" stroke-width="1.8" stroke-linecap="round" stroke-linejoin="round"/>
<path d="M427.343 170.219L124.46 319.285" stroke="white" stroke-width="1.8" stroke-linecap="round" stroke-linejoin="round"/>
<path d="M334.623 170.219L-9.56592 309.912" stroke="white" stroke-width="1.8" stroke-linecap="round" stroke-linejoin="round"/>
<path d="M211.889 170.219L-9.56592 235.365" stroke="white" stroke-width="1.8" stroke-linecap="round" stroke-linejoin="round"/>
<path d="M1142.96 170.219L1320.8 319.285" stroke="white" stroke-width="1.8" stroke-linecap="round" stroke-linejoin="round"/>
<path d="M1214.4 170.219L1446.44 319.285" stroke="white" stroke-width="1.8" stroke-linecap="round" stroke-linejoin="round"/>
<path d="M1288.2 170.219L1457.78 253.675" stroke="white" stroke-width="1.8" stroke-linecap="round" stroke-linejoin="round"/>
<path d="M1360.82 170.219L1458.23 205.857" stroke="white" stroke-width="1.8" stroke-linecap="round" stroke-linejoin="round"/>
<path d="M928.897 170.234L973.064 319.202" stroke="white" stroke-width="1.8" stroke-linecap="round" stroke-linejoin="round"/>
<path d="M1000.01 170.219L1089.43 319.203" stroke="white" stroke-width="1.8" stroke-linecap="round" stroke-linejoin="round"/>
<path d="M1071.87 170.219L1205.1 318.582" stroke="white" stroke-width="1.8" stroke-linecap="round" stroke-linejoin="round"/>
<circle cx="996" cy="167.484" r="70.5" fill="#202124"/>
<ellipse cx="1241" cy="167.484" rx="67.5" ry="64.5" fill="#202124"/>
<path d="M940.408 10.0215L939.733 10.2392C939.793 10.2337 939.842 10.2174 939.902 10.2011C940.076 10.1521 940.245 10.0977 940.414 10.0215H940.408Z" stroke="white" stroke-width="1.8" stroke-linejoin="round"/>
<path d="M939.118 10.3487L939.499 10.3106L939.733 10.2344C939.526 10.2942 939.325 10.3214 939.112 10.3432L939.118 10.3487Z" stroke="white" stroke-width="1.8" stroke-linejoin="round"/>
<path d="M893.73 52.378C899.092 52.6504 901.85 51.0047 918.323 44.3075C926.96 40.8036 928.164 40.4494 929.865 40.1879C937.706 38.9672 944.632 41.2995 949.4 43.5664L941.488 15.3281C938.393 15.4262 933.183 15.8949 927.734 18.3525C925.576 19.3279 921.614 21.3878 907.01 35.5233C899.991 42.324 898.15 44.5092 893.725 46.035C887.474 48.182 882.058 46.9505 881.889 48.0185C881.714 49.1193 887.218 52.0456 893.73 52.3725V52.378Z" fill="#EA4335" stroke="white" stroke-width="1.8" stroke-miterlimit="10"/>
<path d="M938.234 10.4182L970.62 102.986L974.282 101.961L941.836 9.17578L941.079 9.8079L940.409 10.0204C940.24 10.0913 940.071 10.1512 939.896 10.2003C939.836 10.2166 939.787 10.2329 939.727 10.2384L939.493 10.3147L939.112 10.3528L938.867 10.3692L938.234 10.4237V10.4182Z" fill="#202124" stroke="white" stroke-width="1.8" stroke-miterlimit="10"/>
<path d="M939.733 10.2392C939.793 10.2337 939.842 10.2174 939.902 10.2011C940.076 10.1521 940.245 10.0977 940.414 10.0215L939.739 10.2392H939.733Z" stroke="white" stroke-width="1.8" stroke-linejoin="round"/>
<path d="M934.126 6.95282C934.725 9.0944 936.731 10.4731 938.872 10.3641L939.117 10.3477C939.324 10.3259 939.532 10.2932 939.739 10.2388L940.414 10.0208C942.583 9.13799 943.798 6.7403 943.15 4.42434C942.452 1.93401 939.864 0.479043 937.374 1.17655C934.883 1.87407 933.428 4.46249 934.126 6.95282Z" fill="#202124" stroke="white" stroke-width="1.8" stroke-miterlimit="10"/>
<path d="M939.733 10.2392C939.793 10.2337 939.842 10.2174 939.902 10.2011C940.076 10.1521 940.245 10.0977 940.414 10.0215L939.739 10.2392H939.733Z" stroke="white" stroke-width="1.8" stroke-linejoin="round"/>
<path d="M1163.2 169.831C1163.2 211.393 1196.9 245.086 1238.46 245.086C1280.02 245.086 1313.71 211.393 1313.71 169.831C1313.71 128.269 1280.02 94.576 1238.46 94.576C1196.9 94.576 1163.2 128.269 1163.2 169.831ZM1177.3 169.831C1177.3 136.051 1204.68 108.668 1238.46 108.668C1272.24 108.668 1299.62 136.051 1299.62 169.831C1299.62 203.611 1272.24 230.994 1238.46 230.994C1204.68 230.994 1177.3 203.611 1177.3 169.831Z" fill="#38A852" stroke="white" stroke-width="1.8" stroke-miterlimit="10"/>
<path d="M1238.46 111.158C1206.06 111.158 1179.79 137.424 1179.79 169.831C1179.79 175.694 1180.66 181.345 1182.26 186.686L1167.41 201.322C1163.13 191.694 1160.74 181.046 1160.74 169.825C1160.74 126.901 1195.53 92.1074 1238.46 92.1074C1250.07 92.1074 1261.07 94.674 1270.97 99.2351L1256.13 113.867C1250.55 112.106 1244.62 111.153 1238.46 111.153L1238.46 111.158Z" fill="#38A852" stroke="white" stroke-width="1.8" stroke-miterlimit="10"/>
<path d="M919.718 169.831C919.718 211.393 953.411 245.086 994.973 245.086C1036.53 245.086 1070.23 211.393 1070.23 169.831C1070.23 128.269 1036.53 94.576 994.973 94.576C953.411 94.576 919.718 128.269 919.718 169.831ZM933.81 169.831C933.81 136.051 961.192 108.668 994.973 108.668C1028.75 108.668 1056.14 136.051 1056.14 169.831C1056.14 203.611 1028.75 230.994 994.973 230.994C961.192 230.994 933.81 203.611 933.81 169.831Z" fill="#38A852" stroke="white" stroke-width="1.8" stroke-miterlimit="10"/>
<path d="M1053.65 169.831C1053.65 137.429 1027.38 111.158 994.973 111.158C989.11 111.158 983.459 112.03 978.118 113.627L963.481 98.7774C973.11 94.4997 983.758 92.1074 994.978 92.1074C1037.9 92.1074 1072.7 126.901 1072.7 169.825C1072.7 181.438 1070.13 192.44 1065.57 202.336L1050.94 187.492C1052.7 181.917 1053.65 175.983 1053.65 169.825L1053.65 169.831Z" fill="#38A852" stroke="white" stroke-width="1.8" stroke-miterlimit="10"/>
<path d="M998.383 174.461L1077.14 88.3926L1070.64 82.4478L991.886 168.517L998.383 174.461Z" fill="#FFBB00" stroke="white" stroke-width="1.8" stroke-miterlimit="10"/>
<path d="M1134.14 166.595L1206 70.0771C1208.65 66.4806 1207.89 61.4127 1204.29 58.7535L1196.41 52.9336L1119.73 155.964L1134.13 166.595H1134.14Z" fill="#FFBB00" stroke="white" stroke-width="1.8" stroke-miterlimit="10"/>
<path d="M1106.13 158.661L1048.28 39.9748C1047.33 38.0348 1048.13 35.6862 1050.07 34.738C1052.01 33.7844 1054.36 34.5854 1055.31 36.5254L1113.16 155.211L1106.13 158.661H1106.13Z" fill="white" stroke="white" stroke-width="1.8" stroke-miterlimit="10"/>
<path d="M1105.18 156.917L1057.2 58.3442C1056.41 56.7312 1057.35 54.6551 1059.29 53.7014C1061.23 52.7478 1063.44 53.2818 1064.23 54.8948L1112.21 153.467L1105.18 156.917Z" fill="#FFBB00" stroke="white" stroke-width="1.8" stroke-miterlimit="10"/>
<path d="M1038 43.5869L1079.15 39.5489C1084.3 39.0422 1088.2 35.2385 1088.2 30.7047C1088.2 26.1763 1084.3 22.3673 1079.15 21.8605L1038 17.8225C1031.96 17.2286 1026.67 21.3591 1026.67 26.6668V34.7372C1026.67 40.0448 1031.96 44.1754 1038 43.5814V43.5869Z" fill="#EA4335" stroke="white" stroke-width="1.8" stroke-linejoin="round"/>
<path d="M987.257 168.121C987.257 173.184 991.126 177.412 996.172 177.854L1116.61 188.469C1128.55 189.521 1138.83 180.11 1138.83 168.121C1138.83 156.133 1128.55 146.722 1116.61 147.774L996.172 158.389C991.126 158.836 987.257 163.059 987.257 168.121ZM1107.89 167.288C1107.89 161.942 1112.23 157.61 1117.57 157.61C1122.92 157.61 1127.25 161.942 1127.25 167.288C1127.25 172.633 1122.92 176.966 1117.57 176.966C1112.23 176.966 1107.89 172.633 1107.89 167.288Z" fill="#FFBB00" stroke="white" stroke-width="1.8" stroke-miterlimit="10"/>
<path d="M1145.68 4.10742H1176.36C1184.36 4.10742 1191.47 9.19163 1194.06 16.7607L1210.12 63.7174L1201.77 66.5728L1186.19 21.0657C1184.66 16.5809 1180.45 13.5674 1175.72 13.5674H1145.68V4.10742H1145.68Z" fill="white" stroke="white" stroke-width="1.8" stroke-miterlimit="10"/>
<path d="M1134.1 16.3008L1172.64 16.3008C1173.1 16.3008 1173.47 15.9275 1173.47 15.467V1.83287C1173.47 1.3724 1173.1 0.999123 1172.64 0.999123L1134.1 0.999123C1133.64 0.999123 1133.27 1.3724 1133.27 1.83287V15.467C1133.27 15.9275 1133.64 16.3008 1134.1 16.3008Z" fill="#428EFF" stroke="white" stroke-width="1.8" stroke-miterlimit="10"/>
<path d="M1195.69 21.6387H1254.76L1245.33 64.1651C1244.2 69.2602 1239.68 72.884 1234.46 72.884H1212.31" stroke="white" stroke-width="1.8" stroke-miterlimit="10"/>
<path d="M1249.07 47.2598H1204.47" stroke="white" stroke-width="1.8" stroke-miterlimit="10"/>
<path d="M1250.86 34.4492H1200.67" stroke="white" stroke-width="1.8" stroke-miterlimit="10"/>
<path d="M1246.89 60.0703H1208.4" stroke="white" stroke-width="1.8" stroke-miterlimit="10"/>
<path d="M1235.91 21.6387L1232.61 72.884" stroke="white" stroke-width="1.8" stroke-miterlimit="10"/>
<path d="M1216.26 21.6387L1222.82 72.884" stroke="white" stroke-width="1.8" stroke-miterlimit="10"/>
<path d="M1239.85 179.159L1247.43 176.635C1247.71 176.542 1247.86 176.24 1247.77 175.96L1203.48 42.8244C1203.39 42.5445 1203.09 42.3931 1202.81 42.4862L1195.22 45.0096C1194.94 45.1027 1194.79 45.405 1194.88 45.6848L1239.17 178.821C1239.26 179.1 1239.57 179.252 1239.85 179.159Z" fill="#FFBB00" stroke="white" stroke-width="1.8" stroke-miterlimit="10"/>
<defs>
<linearGradient id="paint0_linear_5619_3532" x1="-9.60602" y1="318.946" x2="1231.48" y2="244.711" gradientUnits="userSpaceOnUse">
<stop stop-color="#4280FF"/>
<stop offset="0.11134" stop-color="#4285F4"/>
<stop offset="0.198904" stop-color="#9F6CD4"/>
<stop offset="0.280732" stop-color="#EA4335"/>
<stop offset="0.385904" stop-color="#EA4335"/>
<stop offset="0.447888" stop-color="#F46831"/>
<stop offset="0.550717" stop-color="#FBBC04"/>
<stop offset="0.595817" stop-color="#FFCB32"/>
<stop offset="0.756806" stop-color="#38A852"/>
</linearGradient>
</defs>
</svg>
