<svg width="1440" height="319" viewBox="0 0 1440 319" fill="none" xmlns="http://www.w3.org/2000/svg">
<path d="M-15.5 170.253V319.22L121.766 319.219H126.194L183.757 291.025L535.531 291.027L557.671 266.734L802.305 266.733H858.278V244.734L1180.03 245.475L1225.56 245.104L1205.5 226.5L1029.74 226.664L946.705 226.5L942.404 210.278H857.858L857.88 195.51L621.629 195.511L632.945 181.872L404.661 181.87L426.309 170.235L258.491 170.253" fill="url(#paint0_linear_5619_1245)"/>
<path d="M1458.28 170.251H-9.06561V319.224H1458.28V170.251Z" stroke="#202124" stroke-width="1.8" stroke-linecap="round" stroke-linejoin="round"/>
<path d="M-9.10387 181.87H1458.28" stroke="#202124" stroke-width="1.8" stroke-linecap="round" stroke-linejoin="round"/>
<path d="M-9.10387 195.509H1457.12" stroke="#202124" stroke-width="1.8" stroke-linecap="round" stroke-linejoin="round"/>
<path d="M-9.10387 210.277H1457.12" stroke="#202124" stroke-width="1.8" stroke-linecap="round" stroke-linejoin="round"/>
<path d="M-9.10387 226.664H1457.12" stroke="#202124" stroke-width="1.8" stroke-linecap="round" stroke-linejoin="round"/>
<path d="M-9.10387 245.476H1459" stroke="#202124" stroke-width="1.8" stroke-linecap="round" stroke-linejoin="round"/>
<path d="M-9.10387 266.734H1458.73" stroke="#202124" stroke-width="1.8" stroke-linecap="round" stroke-linejoin="round"/>
<path d="M-9.10387 291.025H1458.73" stroke="#202124" stroke-width="1.8" stroke-linecap="round" stroke-linejoin="round"/>
<path d="M858.628 170.251V319.219" stroke="#202124" stroke-width="1.8" stroke-linecap="round" stroke-linejoin="round"/>
<path d="M787.024 170.251L742.857 319.219" stroke="#202124" stroke-width="1.8" stroke-linecap="round" stroke-linejoin="round"/>
<path d="M715.911 170.235L626.487 319.22" stroke="#202124" stroke-width="1.8" stroke-linecap="round" stroke-linejoin="round"/>
<path d="M644.061 170.235L510.82 318.598" stroke="#202124" stroke-width="1.8" stroke-linecap="round" stroke-linejoin="round"/>
<path d="M573.09 170.235L395.24 319.301" stroke="#202124" stroke-width="1.8" stroke-linecap="round" stroke-linejoin="round"/>
<path d="M501.649 170.235L269.612 319.301" stroke="#202124" stroke-width="1.8" stroke-linecap="round" stroke-linejoin="round"/>
<path d="M427.844 170.235L124.96 319.301" stroke="#202124" stroke-width="1.8" stroke-linecap="round" stroke-linejoin="round"/>
<path d="M335.124 170.236L-9.06561 309.929" stroke="#202124" stroke-width="1.8" stroke-linecap="round" stroke-linejoin="round"/>
<path d="M212.389 170.236L-9.06561 235.382" stroke="#202124" stroke-width="1.8" stroke-linecap="round" stroke-linejoin="round"/>
<path d="M1143.46 170.235L1321.3 319.301" stroke="#202124" stroke-width="1.8" stroke-linecap="round" stroke-linejoin="round"/>
<path d="M1214.9 170.235L1446.94 319.301" stroke="#202124" stroke-width="1.8" stroke-linecap="round" stroke-linejoin="round"/>
<path d="M1288.7 170.235L1458.28 253.692" stroke="#202124" stroke-width="1.8" stroke-linecap="round" stroke-linejoin="round"/>
<path d="M1361.32 170.235L1458.73 205.874" stroke="#202124" stroke-width="1.8" stroke-linecap="round" stroke-linejoin="round"/>
<path d="M929.398 170.251L973.565 319.219" stroke="#202124" stroke-width="1.8" stroke-linecap="round" stroke-linejoin="round"/>
<path d="M1000.51 170.235L1089.93 319.22" stroke="#202124" stroke-width="1.8" stroke-linecap="round" stroke-linejoin="round"/>
<path d="M1072.37 170.235L1205.6 318.598" stroke="#202124" stroke-width="1.8" stroke-linecap="round" stroke-linejoin="round"/>
<circle cx="996.5" cy="167.5" r="70.5" fill="#EEEEEE"/>
<ellipse cx="1241.5" cy="167.5" rx="67.5" ry="64.5" fill="#EEEEEE"/>
<path d="M940.908 10.0364L940.234 10.2541C940.294 10.2487 940.342 10.2323 940.402 10.216C940.576 10.167 940.745 10.1126 940.914 10.0364H940.908Z" stroke="#202124" stroke-width="1.8" stroke-linejoin="round"/>
<path d="M939.618 10.3635L939.999 10.3255L940.233 10.2493C940.026 10.3091 939.825 10.3363 939.613 10.3581L939.618 10.3635Z" stroke="#202124" stroke-width="1.8" stroke-linejoin="round"/>
<path d="M894.231 52.3944C899.593 52.6669 902.35 51.0212 918.823 44.324C927.461 40.8201 928.665 40.4659 930.365 40.2043C938.207 38.9836 945.133 41.3159 949.901 43.5829L941.988 15.3445C938.893 15.4426 933.684 15.9113 928.234 18.3689C926.076 19.3443 922.115 21.4042 907.511 35.5397C900.492 42.3404 898.65 44.5256 894.225 46.0514C887.975 48.1984 882.558 46.9669 882.389 48.0349C882.215 49.1357 887.719 52.062 894.231 52.3889V52.3944Z" fill="#EA4335" stroke="#202124" stroke-width="1.8" stroke-miterlimit="10"/>
<path d="M938.735 10.4342L971.12 103.002L974.782 101.977L942.337 9.19177L941.58 9.82389L940.909 10.0364C940.74 10.1073 940.571 10.1672 940.397 10.2162C940.337 10.2326 940.288 10.2489 940.228 10.2544L939.994 10.3307L939.612 10.3688L939.367 10.3852L938.735 10.4397V10.4342Z" fill="#E8EAED" stroke="#202124" stroke-width="1.8" stroke-miterlimit="10"/>
<path d="M940.234 10.2541C940.294 10.2487 940.342 10.2323 940.402 10.216C940.576 10.167 940.745 10.1126 940.914 10.0364L940.239 10.2541H940.234Z" stroke="#202124" stroke-width="1.8" stroke-linejoin="round"/>
<path d="M934.626 6.96857C935.226 9.11015 937.231 10.4888 939.373 10.3798L939.618 10.3635C939.825 10.3417 940.032 10.309 940.239 10.2545L940.915 10.0365C943.084 9.15374 944.299 6.75605 943.65 4.44009C942.953 1.94976 940.364 0.49479 937.874 1.1923C935.384 1.88981 933.929 4.47823 934.626 6.96857Z" fill="#E8EAED" stroke="#202124" stroke-width="1.8" stroke-miterlimit="10"/>
<path d="M940.234 10.2541C940.294 10.2487 940.342 10.2323 940.402 10.216C940.576 10.167 940.745 10.1126 940.914 10.0364L940.239 10.2541H940.234Z" stroke="#202124" stroke-width="1.8" stroke-linejoin="round"/>
<path d="M1163.7 169.848C1163.7 211.41 1197.4 245.103 1238.96 245.103C1280.52 245.103 1314.21 211.41 1314.21 169.848C1314.21 128.286 1280.52 94.5931 1238.96 94.5931C1197.4 94.5931 1163.7 128.286 1163.7 169.848ZM1177.8 169.848C1177.8 136.068 1205.18 108.685 1238.96 108.685C1272.74 108.685 1300.12 136.068 1300.12 169.848C1300.12 203.628 1272.74 231.011 1238.96 231.011C1205.18 231.011 1177.8 203.628 1177.8 169.848Z" fill="#38A852" stroke="#202124" stroke-width="1.8" stroke-miterlimit="10"/>
<path d="M1238.96 111.175C1206.56 111.175 1180.29 137.441 1180.29 169.848C1180.29 175.711 1181.16 181.362 1182.76 186.703L1167.91 201.34C1163.63 191.711 1161.24 181.063 1161.24 169.843C1161.24 126.918 1196.04 92.1245 1238.96 92.1245C1250.57 92.1245 1261.57 94.6911 1271.47 99.2522L1256.63 113.884C1251.05 112.123 1245.12 111.17 1238.96 111.17L1238.96 111.175Z" fill="#38A852" stroke="#202124" stroke-width="1.8" stroke-miterlimit="10"/>
<path d="M920.218 169.848C920.218 211.41 953.911 245.103 995.473 245.103C1037.04 245.103 1070.73 211.41 1070.73 169.848C1070.73 128.286 1037.04 94.5931 995.473 94.5931C953.911 94.5931 920.218 128.286 920.218 169.848ZM934.31 169.848C934.31 136.068 961.693 108.685 995.473 108.685C1029.25 108.685 1056.64 136.068 1056.64 169.848C1056.64 203.628 1029.25 231.011 995.473 231.011C961.693 231.011 934.31 203.628 934.31 169.848Z" fill="#38A852" stroke="#202124" stroke-width="1.8" stroke-miterlimit="10"/>
<path d="M1054.15 169.848C1054.15 137.446 1027.88 111.175 995.474 111.175C989.61 111.175 983.959 112.047 978.619 113.644L963.982 98.7945C973.611 94.5168 984.259 92.1245 995.479 92.1245C1038.4 92.1245 1073.2 126.918 1073.2 169.843C1073.2 181.455 1070.63 192.457 1066.07 202.353L1051.44 187.509C1053.2 181.935 1054.15 176 1054.15 169.843L1054.15 169.848Z" fill="#38A852" stroke="#202124" stroke-width="1.8" stroke-miterlimit="10"/>
<path d="M998.883 174.478L1077.64 88.4095L1071.14 82.4648L992.387 168.534L998.883 174.478Z" fill="#FFBB00" stroke="#202124" stroke-width="1.8" stroke-miterlimit="10"/>
<path d="M1134.64 166.611L1206.5 70.0932C1209.15 66.4966 1208.39 61.4288 1204.79 58.7695L1196.91 52.9496L1120.24 155.98L1134.63 166.611H1134.64Z" fill="#FFBB00" stroke="#202124" stroke-width="1.8" stroke-miterlimit="10"/>
<path d="M1106.63 158.678L1048.78 39.9922C1047.83 38.0523 1048.63 35.7036 1050.57 34.7554C1052.51 33.8018 1054.86 34.6029 1055.81 36.5428L1113.66 155.229L1106.63 158.678H1106.63Z" fill="#E8EAED" stroke="#202124" stroke-width="1.8" stroke-miterlimit="10"/>
<path d="M1105.68 156.934L1057.7 58.3618C1056.91 56.7488 1057.85 54.6726 1059.79 53.719C1061.73 52.7654 1063.94 53.2994 1064.73 54.9124L1112.71 153.485L1105.68 156.934Z" fill="#FFBB00" stroke="#202124" stroke-width="1.8" stroke-miterlimit="10"/>
<path d="M1038.5 43.6031L1079.65 39.5651C1084.8 39.0583 1088.7 35.2547 1088.7 30.7209C1088.7 26.1925 1084.8 22.3834 1079.65 21.8767L1038.5 17.8387C1032.46 17.2447 1027.17 21.3753 1027.17 26.6829V34.7534C1027.17 40.061 1032.46 44.1916 1038.5 43.5976V43.6031Z" fill="#EA4335" stroke="#202124" stroke-width="1.8" stroke-linejoin="round"/>
<path d="M987.757 168.138C987.757 173.201 991.626 177.43 996.672 177.871L1117.11 188.486C1129.05 189.538 1139.33 180.127 1139.33 168.138C1139.33 156.15 1129.05 146.739 1117.11 147.791L996.672 158.406C991.626 158.853 987.757 163.076 987.757 168.138ZM1108.39 167.305C1108.39 161.959 1112.73 157.627 1118.07 157.627C1123.42 157.627 1127.75 161.959 1127.75 167.305C1127.75 172.651 1123.42 176.983 1118.07 176.983C1112.73 176.983 1108.39 172.651 1108.39 167.305Z" fill="#FFBB00" stroke="#202124" stroke-width="1.8" stroke-miterlimit="10"/>
<path d="M1146.18 4.12469H1176.86C1184.86 4.12469 1191.98 9.2089 1194.56 16.778L1210.62 63.7347L1202.27 66.5901L1186.7 21.0829C1185.16 16.5982 1180.95 13.5847 1176.22 13.5847H1146.18V4.12469H1146.18Z" fill="#E8EAED" stroke="#202124" stroke-width="1.8" stroke-miterlimit="10"/>
<path d="M1134.6 16.3184L1173.14 16.3184C1173.6 16.3184 1173.97 15.9451 1173.97 15.4846V1.85044C1173.97 1.38998 1173.6 1.0167 1173.14 1.0167L1134.6 1.0167C1134.14 1.0167 1133.77 1.38998 1133.77 1.85044V15.4846C1133.77 15.9451 1134.14 16.3184 1134.6 16.3184Z" fill="#428EFF" stroke="#202124" stroke-width="1.8" stroke-miterlimit="10"/>
<path d="M1196.19 21.6548H1255.26L1245.83 64.1812C1244.7 69.2763 1240.19 72.9001 1234.96 72.9001H1212.81" stroke="#202124" stroke-width="1.8" stroke-miterlimit="10"/>
<path d="M1249.57 47.2773H1204.97" stroke="#202124" stroke-width="1.8" stroke-miterlimit="10"/>
<path d="M1251.36 34.4648H1201.17" stroke="#202124" stroke-width="1.8" stroke-miterlimit="10"/>
<path d="M1247.39 60.0878H1208.9" stroke="#202124" stroke-width="1.8" stroke-miterlimit="10"/>
<path d="M1236.41 21.6553L1233.11 72.9006" stroke="#202124" stroke-width="1.8" stroke-miterlimit="10"/>
<path d="M1216.76 21.6553L1223.33 72.9006" stroke="#202124" stroke-width="1.8" stroke-miterlimit="10"/>
<path d="M1240.35 179.176L1247.93 176.652C1248.21 176.559 1248.36 176.257 1248.27 175.977L1203.98 42.8414C1203.89 42.5615 1203.59 42.4101 1203.31 42.5032L1195.72 45.0265C1195.44 45.1196 1195.29 45.422 1195.38 45.7018L1239.67 178.837C1239.76 179.117 1240.07 179.269 1240.35 179.176Z" fill="#FFBB00" stroke="#202124" stroke-width="1.8" stroke-miterlimit="10"/>
<defs>
<linearGradient id="paint0_linear_5619_1245" x1="-9.10602" y1="318.962" x2="1231.98" y2="244.728" gradientUnits="userSpaceOnUse">
<stop stop-color="#4280FF"/>
<stop offset="0.11134" stop-color="#4285F4"/>
<stop offset="0.198904" stop-color="#9F6CD4"/>
<stop offset="0.280732" stop-color="#EA4335"/>
<stop offset="0.385904" stop-color="#EA4335"/>
<stop offset="0.447888" stop-color="#F46831"/>
<stop offset="0.550717" stop-color="#FBBC04"/>
<stop offset="0.595817" stop-color="#FFCB32"/>
<stop offset="0.756806" stop-color="#38A852"/>
</linearGradient>
</defs>
</svg>
