<svg width="764" height="560" viewBox="0 0 764 560" fill="none" xmlns="http://www.w3.org/2000/svg">
<path d="M579.462 374.945L584.595 183.347M579.462 374.945L584.677 373.675L707.202 140.04L584.752 177.497L584.595 183.347M579.462 374.945L557.187 380.371M584.595 183.347L580.892 186.07M258.57 453.115L92.801 376.163L191.168 251.773M258.57 453.115L276.077 448.85M258.57 453.115L260.825 462.373L445.138 497.872L557.187 380.371M276.077 448.85L212.459 232.225L385.343 319.922M276.077 448.85L293.915 444.504M293.915 444.504L371.07 340.338L393.328 323.973M293.915 444.504L557.187 380.371M393.328 323.973L385.343 319.922M393.328 323.973L580.892 186.07M400.295 171.574L385.343 319.922M580.892 186.07L582.327 178.088L463.662 114.413" stroke="#FEFEFE" stroke-width="4"/>
<ellipse cx="693.005" cy="146.404" rx="28.8991" ry="29.9997" transform="rotate(166.309 693.005 146.404)" fill="#36BD57"/>
<ellipse cx="579.888" cy="181.951" rx="28.8991" ry="29.9997" transform="rotate(166.309 579.888 181.951)" fill="#FF4F3E"/>
<ellipse cx="377.643" cy="325.665" rx="28.8991" ry="29.9997" transform="rotate(166.309 377.643 325.665)" fill="#36BD57"/>
<ellipse cx="445.358" cy="497.338" rx="28.8991" ry="29.9997" transform="rotate(166.309 445.358 497.338)" fill="#36BD57"/>
<ellipse cx="214.285" cy="235.412" rx="28.8991" ry="29.9997" transform="rotate(166.309 214.285 235.412)" fill="#FF4F3E"/>
<ellipse cx="106.61" cy="360.812" rx="57.7981" ry="59.9994" transform="rotate(166.309 106.61 360.812)" fill="#FFBB00"/>
<ellipse cx="412.578" cy="128.624" rx="57.7981" ry="59.9994" transform="rotate(166.309 412.578 128.624)" fill="#3D8BFF"/>
<ellipse cx="267.196" cy="465.543" rx="55.7582" ry="57.8818" transform="rotate(166.309 267.196 465.543)" fill="#FFBB00"/>
<ellipse cx="582.451" cy="372.037" rx="71.3977" ry="74.1169" transform="rotate(166.309 582.451 372.037)" fill="#3D8BFF"/>
</svg>
